<?xml version="1.0" encoding="utf-8"?>
<!-- Generator: Adobe Illustrator 14.0.0, SVG Export Plug-In  -->
<!DOCTYPE svg PUBLIC "-//W3C//DTD SVG 1.1//EN" "http://www.w3.org/Graphics/SVG/1.1/DTD/svg11.dtd" [
	<!ENTITY ns_flows "http://ns.adobe.com/Flows/1.0/">
]>
<svg version="1.1"
	 xmlns="http://www.w3.org/2000/svg" xmlns:xlink="http://www.w3.org/1999/xlink" xmlns:a="http://ns.adobe.com/AdobeSVGViewerExtensions/3.0/"
	 x="0px" y="0px" width="301px" height="70px" viewBox="-3.6 -3.1 301 70" enable-background="new -3.6 -3.1 301 70"
	 xml:space="preserve">
<defs>
</defs>
<linearGradient id="SVGID_1_" gradientUnits="userSpaceOnUse" x1="33.1221" y1="61.7949" x2="34.5868" y2="0.2757">
	<stop  offset="5.618000e-003" style="stop-color:#777777"/>
	<stop  offset="0.3202" style="stop-color:#212121"/>
	<stop  offset="0.6164" style="stop-color:#1E1E1E"/>
	<stop  offset="0.7472" style="stop-color:#1A1A1A"/>
	<stop  offset="1" style="stop-color:#9B9B9B"/>
	<a:midPointStop  offset="5.618000e-003" style="stop-color:#777777"/>
	<a:midPointStop  offset="0.5" style="stop-color:#777777"/>
	<a:midPointStop  offset="0.3202" style="stop-color:#212121"/>
	<a:midPointStop  offset="0.7603" style="stop-color:#212121"/>
	<a:midPointStop  offset="0.7472" style="stop-color:#1A1A1A"/>
	<a:midPointStop  offset="0.5" style="stop-color:#1A1A1A"/>
	<a:midPointStop  offset="1" style="stop-color:#9B9B9B"/>
</linearGradient>
<path fill="url(#SVGID_1_)" d="M0,63.9V2.4h29.9c7.9,0,13.8,0.7,17.9,2.1c6.8,2.3,12.1,6.6,16,12.8c3,4.8,4.5,10.3,4.5,16.4
	c0,10.1-4.2,18.2-12.5,24.2c-3.2,2.3-6.5,3.9-9.9,4.7c-3.4,0.8-8.3,1.3-14.5,1.3H0z M26,57.2c0.3-0.1,0.6-0.1,0.8-0.1
	c4.5,0,7.9-1.1,10.2-3.4c1.5-1.5,2.5-3.5,2.9-6c0.4-2.5,0.7-7.4,0.7-14.5c0-6.8-0.2-11.6-0.7-14.3c-0.5-2.7-1.4-4.9-2.8-6.5
	C35,10,31.3,8.8,26,8.8V57.2z"/>
<linearGradient id="SVGID_2_" gradientUnits="userSpaceOnUse" x1="105.6367" y1="63.5488" x2="107.1017" y2="2.0163">
	<stop  offset="5.618000e-003" style="stop-color:#777777"/>
	<stop  offset="0.3202" style="stop-color:#212121"/>
	<stop  offset="0.6164" style="stop-color:#1E1E1E"/>
	<stop  offset="0.7472" style="stop-color:#1A1A1A"/>
	<stop  offset="1" style="stop-color:#9B9B9B"/>
	<a:midPointStop  offset="5.618000e-003" style="stop-color:#777777"/>
	<a:midPointStop  offset="0.5" style="stop-color:#777777"/>
	<a:midPointStop  offset="0.3202" style="stop-color:#212121"/>
	<a:midPointStop  offset="0.7603" style="stop-color:#212121"/>
	<a:midPointStop  offset="0.7472" style="stop-color:#1A1A1A"/>
	<a:midPointStop  offset="0.5" style="stop-color:#1A1A1A"/>
	<a:midPointStop  offset="1" style="stop-color:#9B9B9B"/>
</linearGradient>
<path fill="url(#SVGID_2_)" d="M139.4,60.2c-5.8,3.4-13.8,5.1-24.2,5.1c-12.3,0-22.2-2.7-29.8-8.1c-8.5-6-12.7-14-12.7-24.1
	c0-7.6,2.3-14.1,6.9-19.6c7-8.3,17.7-12.4,32.2-12.4c5.9,0,10.8,0.6,14.7,1.8c3.9,1.2,7.6,3.2,11,6c-1.9,2.4-4.8,3.8-8.9,4.1
	c-1.3-2.2-2.7-3.6-4.1-4.4c-1.5-0.8-3.6-1.2-6.3-1.2c-6.3,0-11.2,2.1-14.6,6.2c-1.2,1.4-2,3.3-2.4,5.8c-0.4,2.4-0.6,6.4-0.6,11.8
	c0,7.7,0.2,13.2,0.7,16.4c0.5,3.2,1.3,5.6,2.6,7.2c1.1,1.3,2.3,2.2,3.7,2.8c1.4,0.6,3.5,1,6.1,1.3V19.5h26V60.2z"/>
<path fill="#E2A928" d="M192.1,61.8h-43.6V4.9h20.8V56h22.8V61.8z"/>
<path fill="#E2A928" d="M204.8,0c2.6,0,4.8,0.8,6.6,2.3c1.9,1.5,2.8,3.4,2.8,5.5c0,2.2-0.9,4-2.8,5.5c-1.9,1.5-4.1,2.3-6.8,2.3
	c-2.7,0-4.9-0.8-6.8-2.3c-1.9-1.5-2.8-3.4-2.8-5.5c0-2.2,0.9-4,2.8-5.5C199.8,0.8,202.1,0,204.8,0z M213,61.8h-16.7V18H213V61.8z"/>
<path fill="#E2A928" d="M246.5,18v5.9h-7.4v38h-16.7v-38h-4.6V18h4.6v-2.2c0-2.4,0.2-4.1,0.7-5.1c2-4.4,7.3-6.6,15.9-6.6
	c4.9,0,9.3,0.8,13.3,2.5c-1.2,3.1-2.7,5.3-4.6,6.5c-1.4-2.7-3.2-4-5.3-4c-1.5,0-2.5,0.7-3,2.1c-0.2,0.5-0.3,1.9-0.3,4.2V18H246.5z"
	/>
<path fill="#E2A928" d="M265.9,38.9c0,3.3,0.1,5.9,0.3,7.8c0.6,7.4,3.8,11.1,9.8,11.1c5.2,0,7.9-2.2,7.9-6.6c0-0.1,0-0.4,0-0.8
	c2.3,0.2,4.1,0.8,5.5,1.8c1.3,1,2.1,2.4,2.4,4.2c-3.7,4.4-10,6.6-18.9,6.6c-7.3,0-13.3-1.9-17.9-5.8c-4.7-3.9-7-9.2-7-15.9
	c0-7.1,2.3-12.9,6.9-17.3c4.7-4.5,10.2-6.8,16.6-6.8c4.6,0,9,1.2,13.1,3.6c4.3,2.5,7.3,6.5,8.8,12c0.4,1.5,0.8,3.6,1.3,6.4H265.9z
	 M277,33.7c-0.3-3.6-0.6-6.2-1.2-7.7c-1-2.9-2.4-4.3-4.3-4.3c-1.7,0-2.9,0.9-3.8,2.8c-0.9,1.9-1.4,4.9-1.7,9.2H277z"/>
</svg>
