<?xml version="1.0" encoding="utf-8"?>
<!-- Generator: Adobe Illustrator 14.0.0, SVG Export Plug-In  -->
<!DOCTYPE svg PUBLIC "-//W3C//DTD SVG 1.1//EN" "http://www.w3.org/Graphics/SVG/1.1/DTD/svg11.dtd" [
	<!ENTITY ns_flows "http://ns.adobe.com/Flows/1.0/">
]>
<svg version="1.1"
	 xmlns="http://www.w3.org/2000/svg" xmlns:xlink="http://www.w3.org/1999/xlink" xmlns:a="http://ns.adobe.com/AdobeSVGViewerExtensions/3.0/"
	 x="0px" y="0px" width="450px" height="70px" viewBox="-10.4 -8.3 450 70" enable-background="new -10.4 -8.3 450 70"
	 xml:space="preserve">
<defs>
</defs>
<linearGradient id="SVGID_1_" gradientUnits="userSpaceOnUse" x1="13.6753" y1="23.2593" x2="14.2247" y2="0.1842">
	<stop  offset="5.618000e-003" style="stop-color:#777777"/>
	<stop  offset="0.3202" style="stop-color:#212121"/>
	<stop  offset="0.6164" style="stop-color:#1E1E1E"/>
	<stop  offset="0.7472" style="stop-color:#1A1A1A"/>
	<stop  offset="1" style="stop-color:#9B9B9B"/>
	<a:midPointStop  offset="5.618000e-003" style="stop-color:#777777"/>
	<a:midPointStop  offset="0.5" style="stop-color:#777777"/>
	<a:midPointStop  offset="0.3202" style="stop-color:#212121"/>
	<a:midPointStop  offset="0.7603" style="stop-color:#212121"/>
	<a:midPointStop  offset="0.7472" style="stop-color:#1A1A1A"/>
	<a:midPointStop  offset="0.5" style="stop-color:#1A1A1A"/>
	<a:midPointStop  offset="1" style="stop-color:#9B9B9B"/>
</linearGradient>
<path fill="url(#SVGID_1_)" d="M1.3,24.1V1h11.2c3,0,5.2,0.3,6.7,0.8c2.6,0.9,4.6,2.5,6,4.8c1.1,1.8,1.7,3.9,1.7,6.2
	c0,3.8-1.6,6.8-4.7,9.1c-1.2,0.9-2.4,1.5-3.7,1.8c-1.3,0.3-3.1,0.5-5.4,0.5H1.3z M11,21.5c0.1,0,0.2,0,0.3,0c1.7,0,3-0.4,3.8-1.3
	c0.6-0.6,0.9-1.3,1.1-2.2c0.2-0.9,0.2-2.8,0.2-5.4c0-2.5-0.1-4.3-0.3-5.3c-0.2-1-0.5-1.8-1.1-2.4C14.4,3.8,13,3.4,11,3.4V21.5z"/>
<linearGradient id="SVGID_2_" gradientUnits="userSpaceOnUse" x1="40.8755" y1="23.9185" x2="41.425" y2="0.8374">
	<stop  offset="5.618000e-003" style="stop-color:#777777"/>
	<stop  offset="0.3202" style="stop-color:#212121"/>
	<stop  offset="0.6164" style="stop-color:#1E1E1E"/>
	<stop  offset="0.7472" style="stop-color:#1A1A1A"/>
	<stop  offset="1" style="stop-color:#9B9B9B"/>
	<a:midPointStop  offset="5.618000e-003" style="stop-color:#777777"/>
	<a:midPointStop  offset="0.5" style="stop-color:#777777"/>
	<a:midPointStop  offset="0.3202" style="stop-color:#212121"/>
	<a:midPointStop  offset="0.7603" style="stop-color:#212121"/>
	<a:midPointStop  offset="0.7472" style="stop-color:#1A1A1A"/>
	<a:midPointStop  offset="0.5" style="stop-color:#1A1A1A"/>
	<a:midPointStop  offset="1" style="stop-color:#9B9B9B"/>
</linearGradient>
<path fill="url(#SVGID_2_)" d="M53.6,22.7c-2.2,1.3-5.2,1.9-9.1,1.9c-4.6,0-8.3-1-11.2-3c-3.2-2.2-4.8-5.3-4.8-9
	c0-2.8,0.9-5.3,2.6-7.3c2.6-3.1,6.6-4.7,12.1-4.7c2.2,0,4.1,0.2,5.5,0.7c1.5,0.4,2.8,1.2,4.1,2.3C52.1,4.3,51,4.8,49.4,5
	c-0.5-0.8-1-1.4-1.6-1.7c-0.6-0.3-1.4-0.5-2.4-0.5c-2.4,0-4.2,0.8-5.5,2.3c-0.4,0.5-0.7,1.3-0.9,2.2c-0.2,0.9-0.2,2.4-0.2,4.4
	c0,2.9,0.1,4.9,0.3,6.1c0.2,1.2,0.5,2.1,1,2.7c0.4,0.5,0.9,0.8,1.4,1.1c0.5,0.2,1.3,0.4,2.3,0.5V7.4h9.8V22.7z"/>
<path fill="#E29741" d="M16.3,53.3H0V31.9h7.8v19.2h8.5V53.3z"/>
<path fill="#E29741" d="M21.1,30.1c1,0,1.8,0.3,2.5,0.8c0.7,0.6,1,1.3,1,2.1c0,0.8-0.4,1.5-1.1,2.1c-0.7,0.6-1.6,0.8-2.5,0.8
	c-1,0-1.8-0.3-2.5-0.8c-0.7-0.6-1-1.3-1-2.1c0-0.8,0.4-1.5,1.1-2.1S20.1,30.1,21.1,30.1z M24.2,53.3h-6.3V36.8h6.3V53.3z"/>
<path fill="#E29741" d="M36.8,36.8V39H34v14.2h-6.3V39H26v-2.2h1.7V36c0-0.9,0.1-1.5,0.3-1.9c0.7-1.7,2.7-2.5,6-2.5
	c1.8,0,3.5,0.3,5,0.9c-0.4,1.2-1,2-1.7,2.4c-0.5-1-1.2-1.5-2-1.5c-0.6,0-0.9,0.3-1.1,0.8C34,34.4,34,35,34,35.8v1H36.8z"/>
<path fill="#E29741" d="M44,44.7c0,1.2,0,2.2,0.1,2.9c0.2,2.8,1.4,4.2,3.7,4.2c2,0,3-0.8,3-2.5c0,0,0-0.1,0-0.3
	c0.9,0.1,1.6,0.3,2.1,0.7c0.5,0.4,0.8,0.9,0.9,1.6c-1.4,1.6-3.7,2.5-7.1,2.5c-2.7,0-5-0.7-6.7-2.2c-1.8-1.5-2.6-3.5-2.6-6
	c0-2.7,0.9-4.8,2.6-6.5c1.7-1.7,3.8-2.5,6.2-2.5c1.7,0,3.4,0.4,4.9,1.3c1.6,0.9,2.7,2.4,3.3,4.5c0.2,0.5,0.3,1.3,0.5,2.4H44z
	 M48.2,42.7c-0.1-1.3-0.2-2.3-0.4-2.9c-0.4-1.1-0.9-1.6-1.6-1.6c-0.6,0-1.1,0.4-1.4,1.1s-0.5,1.8-0.6,3.4H48.2z"/>
<path fill="#545356" d="M80.1,1.9c-3.4,6.3-7.1,10.9-11.2,13.9l-4.9-3C68.8,9.2,72.3,4.9,74.6,0L80.1,1.9z M68.8,30.4L64,27.3
	c6.1-4.4,10.6-9.5,13.4-15.3l5.4,2c-2,3.4-3.9,6.4-5.9,8.8v30.8h-5.7V28.5C70.5,29.2,69.6,29.8,68.8,30.4z M89,37.4
	C88.1,43,86.3,47.9,83.6,52c-1.8-1.2-3.4-2-4.8-2.4c2.6-3.8,4-8.1,4.3-12.9L89,37.4z M124.8,26.2H84.5c-0.5,0-0.7-0.2-0.7-0.7v-13
	c0-0.4,0.3-0.6,0.7-0.6h16.4V8.3H82.3V3.8h18.6V0.2h5.7v3.5h20.1v4.5h-20.1v3.5h18.2c0.5,0,0.8,0.2,0.8,0.6v13
	C125.6,26,125.4,26.2,124.8,26.2z M127.3,29.1v4.5H82.6v-4.5H127.3z M95.9,16.1h-6.6c-0.2,0-0.2,0.1-0.2,0.2v5.4
	c0,0.1,0,0.2,0.2,0.2h6.6V16.1z M97.2,36.3v9c0,1.2,0.2,1.9,0.5,2.3c0.5,0.6,1.6,0.9,3,0.9h8.6c1.1,0,1.9-0.1,2.5-0.3
	c0.5-0.1,0.9-0.5,1.2-1c0.3-0.5,0.5-1.8,0.5-4.2l5.7,0.6c-0.3,4.3-0.7,6.8-1.4,7.5c-0.9,0.9-1.8,1.5-2.6,1.7
	c-0.9,0.2-2.3,0.3-4.1,0.3H98.2c-1.6,0-2.9-0.3-3.9-0.9c-2-1.2-2.9-3.2-2.8-6.1v-9.8H97.2z M106.3,35.5c0.4,0.6,1,1.7,2,3.3
	c0.9,1.5,1.7,2.9,2.3,4.2l-5.2,1.6c-1.4-3-2.8-5.4-4.2-7.2L106.3,35.5z M107.7,16.1h-6.2v5.8h6.2V16.1z M113.4,21.9h6.7
	c0.2,0,0.3-0.1,0.3-0.2v-5.4c0-0.1-0.1-0.2-0.3-0.2h-6.7V21.9z M122.1,35.3c2.3,3.6,4.5,8.2,6.4,13.8l-5.4,1.6
	c-2.1-5.8-4.1-10.3-6.2-13.5L122.1,35.3z"/>
<path fill="#545356" d="M168.8,9.6v4.7h-29V9.6H168.8z M147.1,52.5h-5.7V32.9c0-1,0.6-1.5,1.8-1.5h21.7c1.2,0,1.8,0.5,1.8,1.5v15.6
	c0,1.1-0.6,1.6-1.9,1.6h-17.8V52.5z M164.2,2.1v4.7h-20.9V2.1H164.2z M164.7,17v4.5h-21.4V17H164.7z M164.7,24.3v4.5h-21.4v-4.5
	H164.7z M148,35.9c-0.6,0-0.9,0.2-0.9,0.7v8.8h12.8c0.8,0,1.1-0.4,1.1-1v-7.9c0-0.5-0.4-0.7-0.9-0.7H148z M194.2,7.9
	c0-0.5-0.3-0.7-0.9-0.7h-22.7V2.3h27.7c1.2,0,1.8,0.5,1.8,1.4v23.3h-5.9v-0.7h-17.9c-0.3,0-0.5,0.1-0.5,0.4v18
	c0,1.1,0.2,1.9,0.7,2.4c0.7,0.6,1.7,1,3,1h14.1c0.9,0,1.7-0.2,2.4-0.7c0.7-0.5,1.2-1,1.5-1.6c0.5-0.9,0.5-3.5,0.3-7.9l5.8,0.8
	c0.4,4.7,0.1,8.1-0.7,10.2c-0.6,1.4-1.6,2.5-2.9,3.3c-0.9,0.6-2.4,0.9-4.5,0.9h-16.7c-3.1,0-5.4-0.7-7-2.1c-1.3-1.1-1.9-2.6-1.9-4.4
	V22.3c0-0.7,0.4-1,1.2-1h23.1V7.9z"/>
<path fill="#545356" d="M245.9,33.2H224v-4.9h21.9V15.1h-17.2c-2.3,3.9-5,7.2-8.1,10l-5-3.2c3.1-2.8,5.6-5.8,7.7-9
	c1.5-2.6,2.8-6.5,3.9-11.7l6.1,0.7c-0.5,3-1.3,5.8-2.2,8.3h14.8V0.3h6.2v9.9h24.5v4.9H252v13.2h22.3v4.9H252v14.2h26.9v4.9h-61.7
	v-4.9h28.6V33.2z"/>
<path fill="#545356" d="M309.4,32.3c-3.2,9.3-7.5,16.4-12.6,21.3l-5.5-2.6c6.2-5.9,10.3-12.6,12.5-20L309.4,32.3z M295.5,1.7
	c3.8,1.8,8,4.3,12.6,7.7l-3.6,4c-4.9-3.5-9-6-12.4-7.6L295.5,1.7z M295.4,16.5c3.5,1.6,7.4,3.9,11.6,6.9l-3.6,4
	c-4.5-3.2-8.2-5.5-11.3-6.9L295.4,16.5z M318.6,53.3h-5.9V29.9c0-0.5,0.3-0.8,0.9-0.8h14.8v-8.3h-18.5v-4.9h18.5V7.7
	c-6.4,0.3-11.8,0.5-16.1,0.6l-0.8-4.9c6.1-0.1,13.1-0.4,21.1-1c8.2-0.6,14.2-1.3,18.2-2l0.9,4.9c-2.8,0.6-8.6,1.3-17.4,2.1v8.6h20
	v4.9h-20v8.3H352c0.9,0,1.3,0.3,1.3,1v23.1h-5.9v-2.6h-28.7V53.3z M347.3,45.8v-11c0-0.5-0.3-0.7-0.9-0.7h-27
	c-0.6,0-0.9,0.2-0.8,0.7v11H347.3z"/>
<path fill="#545356" d="M368.3,30.3c-0.3-1.3-0.8-2.7-1.5-4.3l3.6-0.5c1.9-1.7,3.9-3.8,6.2-6.3c-3.2-2.8-6.5-5.1-9.7-6.8
	c0.9-1.3,1.8-2.6,2.8-3.9c0.2,0.1,0.8,0.4,1.8,1c2-2.8,4-5.9,5.8-9.3c1.5,0.8,3.1,1.5,4.6,2.3c-1.4,2.5-3.5,5.7-6.5,9.7
	c1.3,0.9,2.8,2,4.3,3.3c2.3-3.4,4-6.7,5.1-9.9l5.1,1.3c-1.3,4.6-5.5,10.6-12.4,17.9l6.8-0.9c-0.5-2.2-0.9-3.5-1.1-4.2l4.9-0.7
	c1.4,5.2,2.3,9,2.6,11.5l-4.9,0.4c-0.1-0.9-0.3-1.7-0.5-2.6l-3.7,0.5v25.1h-5.7V29.4L368.3,30.3z M374,33.7c-0.4,6.6-1,12.2-2,16.8
	l-4.9-0.8c1.3-5.9,2-11.4,2-16.5L374,33.7z M390,45.8l-4.7,0.6L383.2,34l4.7-0.9L390,45.8z M397.4,30.4v23.4h-5.7V3.4
	c0-1.1,0.7-1.7,2-1.7h34.1c1.4,0,2,0.6,2,1.7v44.6c0,2-0.9,3.6-2.7,4.7c-2.2,1.3-6.6,1.5-13.3,0.6l-0.5-5.3c5,1.1,8,1.3,9.2,0.6
	c1-0.5,1.5-1.2,1.5-2.2v-16H408v8c0,0.8,0.5,1.2,1.4,1.2H421v4.5h-15.8c-1.7,0-2.5-0.7-2.5-2.2V30.4H397.4z M424.1,16.8V6.6
	c0-0.2-0.2-0.3-0.5-0.3h-25.8c-0.3,0-0.4,0.1-0.4,0.3v10.1h14.7c2.2-4.2,3.6-7.4,4.1-9.3l4.9,1.7c-0.4,0.9-1.1,2.6-2.1,4.9
	c-0.5,0.9-0.9,1.8-1.2,2.7H424.1z M408.1,25.8v-4.5h-10.7v4.5H408.1z M406.2,8c1,1.9,1.8,4.3,2.4,7.2l-5,1c-0.7-3-1.4-5.3-2.3-7
	L406.2,8z M424.1,25.8v-4.5h-10.7v4.5H424.1z"/>
</svg>
