<?xml version="1.0" encoding="utf-8"?>
<!-- Generator: Adobe Illustrator 14.0.0, SVG Export Plug-In  -->
<!DOCTYPE svg PUBLIC "-//W3C//DTD SVG 1.1//EN" "http://www.w3.org/Graphics/SVG/1.1/DTD/svg11.dtd" [
	<!ENTITY ns_flows "http://ns.adobe.com/Flows/1.0/">
]>
<svg version="1.1"
	 xmlns="http://www.w3.org/2000/svg" xmlns:xlink="http://www.w3.org/1999/xlink" xmlns:a="http://ns.adobe.com/AdobeSVGViewerExtensions/3.0/"
	 x="0px" y="0px" width="300px" height="40px" viewBox="-19.5 -7.8 300 40" enable-background="new -19.5 -7.8 300 40"
	 xml:space="preserve">
<defs>
</defs>
<linearGradient id="SVGID_1_" gradientUnits="userSpaceOnUse" x1="12.4243" y1="23.1782" x2="12.9737" y2="0.1032">
	<stop  offset="5.618000e-003" style="stop-color:#777777"/>
	<stop  offset="0.3202" style="stop-color:#212121"/>
	<stop  offset="0.6164" style="stop-color:#1E1E1E"/>
	<stop  offset="0.7472" style="stop-color:#1A1A1A"/>
	<stop  offset="1" style="stop-color:#9B9B9B"/>
	<a:midPointStop  offset="5.618000e-003" style="stop-color:#777777"/>
	<a:midPointStop  offset="0.5" style="stop-color:#777777"/>
	<a:midPointStop  offset="0.3202" style="stop-color:#212121"/>
	<a:midPointStop  offset="0.7603" style="stop-color:#212121"/>
	<a:midPointStop  offset="0.7472" style="stop-color:#1A1A1A"/>
	<a:midPointStop  offset="0.5" style="stop-color:#1A1A1A"/>
	<a:midPointStop  offset="1" style="stop-color:#9B9B9B"/>
</linearGradient>
<path fill="url(#SVGID_1_)" d="M0,24V0.9h11.2c3,0,5.2,0.3,6.7,0.8c2.6,0.9,4.6,2.5,6,4.8c1.1,1.8,1.7,3.9,1.7,6.2
	c0,3.8-1.6,6.8-4.7,9.1c-1.2,0.9-2.4,1.5-3.7,1.8c-1.3,0.3-3.1,0.5-5.4,0.5H0z M9.8,21.5c0.1,0,0.2,0,0.3,0c1.7,0,3-0.4,3.8-1.3
	c0.6-0.5,0.9-1.3,1.1-2.2c0.2-0.9,0.2-2.8,0.2-5.4c0-2.5-0.1-4.3-0.3-5.3c-0.2-1-0.5-1.8-1.1-2.4c-0.8-0.9-2.2-1.4-4.2-1.4V21.5z"/>
<linearGradient id="SVGID_2_" gradientUnits="userSpaceOnUse" x1="39.624" y1="23.8374" x2="40.1735" y2="0.7568">
	<stop  offset="5.618000e-003" style="stop-color:#777777"/>
	<stop  offset="0.3202" style="stop-color:#212121"/>
	<stop  offset="0.6164" style="stop-color:#1E1E1E"/>
	<stop  offset="0.7472" style="stop-color:#1A1A1A"/>
	<stop  offset="1" style="stop-color:#9B9B9B"/>
	<a:midPointStop  offset="5.618000e-003" style="stop-color:#777777"/>
	<a:midPointStop  offset="0.5" style="stop-color:#777777"/>
	<a:midPointStop  offset="0.3202" style="stop-color:#212121"/>
	<a:midPointStop  offset="0.7603" style="stop-color:#212121"/>
	<a:midPointStop  offset="0.7472" style="stop-color:#1A1A1A"/>
	<a:midPointStop  offset="0.5" style="stop-color:#1A1A1A"/>
	<a:midPointStop  offset="1" style="stop-color:#9B9B9B"/>
</linearGradient>
<path fill="url(#SVGID_2_)" d="M52.3,22.6c-2.2,1.3-5.2,1.9-9.1,1.9c-4.6,0-8.3-1-11.2-3c-3.2-2.2-4.8-5.3-4.8-9
	c0-2.8,0.9-5.3,2.6-7.3c2.6-3.1,6.6-4.7,12.1-4.7c2.2,0,4.1,0.2,5.5,0.7c1.5,0.4,2.8,1.2,4.1,2.3c-0.7,0.9-1.8,1.4-3.3,1.6
	c-0.5-0.8-1-1.4-1.6-1.7c-0.6-0.3-1.4-0.5-2.4-0.5c-2.4,0-4.2,0.8-5.5,2.3c-0.4,0.5-0.7,1.3-0.9,2.2c-0.2,0.9-0.2,2.4-0.2,4.4
	c0,2.9,0.1,4.9,0.3,6.1c0.2,1.2,0.5,2.1,1,2.7c0.4,0.5,0.9,0.8,1.4,1.1c0.5,0.2,1.3,0.4,2.3,0.5V7.3h9.8V22.6z"/>
<path fill="#E29741" d="M72.1,23.2H55.7V1.8h7.8V21h8.5V23.2z"/>
<path fill="#E29741" d="M76.8,0c1,0,1.8,0.3,2.5,0.8c0.7,0.6,1,1.3,1,2.1c0,0.8-0.4,1.5-1.1,2.1c-0.7,0.6-1.6,0.8-2.5,0.8
	S74.9,5.5,74.2,5c-0.7-0.6-1-1.3-1-2.1c0-0.8,0.4-1.5,1.1-2.1C75,0.3,75.8,0,76.8,0z M79.9,23.2h-6.3V6.8h6.3V23.2z"/>
<path fill="#E29741" d="M92.5,6.8V9h-2.8v14.2h-6.3V9h-1.7V6.8h1.7V5.9c0-0.9,0.1-1.5,0.3-1.9c0.7-1.7,2.7-2.5,6-2.5
	c1.8,0,3.5,0.3,5,0.9c-0.4,1.2-1,2-1.7,2.4c-0.5-1-1.2-1.5-2-1.5c-0.6,0-0.9,0.3-1.1,0.8c-0.1,0.2-0.1,0.7-0.1,1.6v1H92.5z"/>
<path fill="#E29741" d="M99.8,14.6c0,1.2,0,2.2,0.1,2.9c0.2,2.8,1.4,4.2,3.7,4.2c2,0,3-0.8,3-2.5c0,0,0-0.1,0-0.3
	c0.9,0.1,1.6,0.3,2.1,0.7c0.5,0.4,0.8,0.9,0.9,1.6c-1.4,1.6-3.7,2.5-7.1,2.5c-2.7,0-5-0.7-6.7-2.2c-1.8-1.5-2.6-3.5-2.6-6
	c0-2.7,0.9-4.8,2.6-6.5c1.7-1.7,3.8-2.5,6.2-2.5c1.7,0,3.4,0.4,4.9,1.3c1.6,0.9,2.7,2.4,3.3,4.5c0.2,0.5,0.3,1.3,0.5,2.4H99.8z
	 M103.9,12.6c-0.1-1.3-0.2-2.3-0.4-2.9c-0.4-1.1-0.9-1.6-1.6-1.6c-0.6,0-1.1,0.4-1.4,1.1c-0.3,0.7-0.5,1.8-0.6,3.4H103.9z"/>
<path fill="#545356" d="M119.8,0.8v23.3h-2V0.8H119.8z"/>
<path fill="#545356" d="M133,2.3c-1.4,2.5-2.9,4.4-4.5,5.6l-2-1.2c1.9-1.5,3.3-3.2,4.3-5.1L133,2.3z M128.5,13.7l-1.9-1.2
	c2.4-1.8,4.2-3.8,5.4-6.1l2.2,0.8c-0.8,1.4-1.6,2.6-2.4,3.5V23h-2.3V12.9C129.1,13.2,128.8,13.5,128.5,13.7z M136.5,16.5
	c-0.4,2.3-1.1,4.2-2.2,5.9c-0.7-0.5-1.4-0.8-1.9-1c1-1.5,1.6-3.2,1.7-5.2L136.5,16.5z M150.9,12h-16.1c-0.2,0-0.3-0.1-0.3-0.3V6.5
	c0-0.2,0.1-0.3,0.3-0.3h6.6V4.8h-7.5V3h7.5V1.6h2.3V3h8.1v1.8h-8.1v1.4h7.3c0.2,0,0.3,0.1,0.3,0.3v5.2C151.2,11.9,151.1,12,150.9,12
	z M151.9,13.2V15H134v-1.8H151.9z M139.3,8h-2.6c-0.1,0-0.1,0-0.1,0.1v2.2c0,0,0,0.1,0.1,0.1h2.6V8z M139.8,16.1v3.6
	c0,0.5,0.1,0.8,0.2,0.9c0.2,0.2,0.6,0.3,1.2,0.3h3.4c0.4,0,0.8-0.1,1-0.1c0.2-0.1,0.4-0.2,0.5-0.4c0.1-0.2,0.2-0.7,0.2-1.7l2.3,0.2
	c-0.1,1.7-0.3,2.7-0.6,3c-0.4,0.4-0.7,0.6-1,0.7c-0.4,0.1-0.9,0.1-1.7,0.1h-5.1c-0.7,0-1.2-0.1-1.6-0.4c-0.8-0.5-1.2-1.3-1.1-2.4
	v-3.9H139.8z M143.5,15.8c0.1,0.2,0.4,0.7,0.8,1.3c0.4,0.6,0.7,1.2,0.9,1.7l-2.1,0.6c-0.6-1.2-1.1-2.1-1.7-2.9L143.5,15.8z M144.1,8
	h-2.5v2.3h2.5V8z M146.3,10.3h2.7c0.1,0,0.1,0,0.1-0.1V8c0,0,0-0.1-0.1-0.1h-2.7V10.3z M149.8,15.7c0.9,1.4,1.8,3.3,2.6,5.5
	l-2.2,0.6c-0.8-2.3-1.7-4.1-2.5-5.4L149.8,15.7z"/>
<path fill="#545356" d="M166.1,5.4v1.9h-11.6V5.4H166.1z M157.4,22.6h-2.3v-7.9c0-0.4,0.3-0.6,0.7-0.6h8.7c0.5,0,0.7,0.2,0.7,0.6
	v6.2c0,0.4-0.3,0.6-0.8,0.6h-7.1V22.6z M164.2,2.4v1.9h-8.4V2.4H164.2z M164.5,8.3v1.8h-8.6V8.3H164.5z M164.5,11.3v1.8h-8.6v-1.8
	H164.5z M157.7,15.9c-0.2,0-0.3,0.1-0.3,0.3v3.5h5.2c0.3,0,0.5-0.1,0.5-0.4v-3.2c0-0.2-0.1-0.3-0.4-0.3H157.7z M176.3,4.7
	c0-0.2-0.1-0.3-0.4-0.3h-9.1v-2H178c0.5,0,0.7,0.2,0.7,0.6v9.3h-2.4V12h-7.2c-0.1,0-0.2,0.1-0.2,0.2v7.2c0,0.5,0.1,0.8,0.3,1
	c0.3,0.3,0.7,0.4,1.2,0.4h5.6c0.4,0,0.7-0.1,1-0.3c0.3-0.2,0.5-0.4,0.6-0.7c0.2-0.4,0.2-1.4,0.1-3.2L180,17c0.1,1.9,0,3.3-0.3,4.1
	c-0.2,0.5-0.6,1-1.2,1.3c-0.4,0.2-1,0.3-1.8,0.4h-6.7c-1.3,0-2.2-0.3-2.8-0.8c-0.5-0.5-0.8-1.1-0.8-1.8v-9.6c0-0.3,0.2-0.4,0.5-0.4
	h9.3V4.7z"/>
<path fill="#545356" d="M194.1,14.8h-8.8v-2h8.8V7.6h-6.9c-0.9,1.6-2,2.9-3.2,4l-2-1.3c1.2-1.1,2.3-2.3,3.1-3.6
	c0.6-1,1.1-2.6,1.6-4.7l2.4,0.3c-0.2,1.2-0.5,2.3-0.9,3.3h5.9v-4h2.5v4h9.8v2h-9.8v5.3h8.9v2h-8.9v5.7h10.8v2h-24.7v-2h11.5V14.8z"
	/>
<path fill="#545356" d="M217,14.5c-1.3,3.7-3,6.6-5.1,8.5l-2.2-1c2.5-2.4,4.1-5,5-8L217,14.5z M211.4,2.2c1.5,0.7,3.2,1.7,5.1,3.1
	l-1.4,1.6c-1.9-1.4-3.6-2.4-5-3L211.4,2.2z M211.4,8.1c1.4,0.6,3,1.6,4.7,2.8l-1.4,1.6c-1.8-1.3-3.3-2.2-4.5-2.8L211.4,8.1z
	 M220.7,22.9h-2.4v-9.4c0-0.2,0.1-0.3,0.4-0.3h5.9V9.9h-7.4v-2h7.4V4.6c-2.6,0.1-4.7,0.2-6.5,0.2l-0.3-2c2.4,0,5.3-0.2,8.5-0.4
	c3.3-0.2,5.7-0.5,7.3-0.8l0.4,2c-1.1,0.2-3.4,0.5-7,0.8v3.4h8v2h-8v3.3h7.1c0.3,0,0.5,0.1,0.5,0.4v9.3h-2.4v-1h-11.5V22.9z
	 M232.2,19.9v-4.4c0-0.2-0.1-0.3-0.4-0.3H221c-0.2,0-0.3,0.1-0.3,0.3v4.4H232.2z"/>
<path fill="#545356" d="M238,13.7c-0.1-0.5-0.3-1.1-0.6-1.7l1.4-0.2c0.8-0.7,1.6-1.5,2.5-2.5c-1.3-1.1-2.6-2-3.9-2.7
	c0.4-0.5,0.7-1,1.1-1.6c0.1,0,0.3,0.2,0.7,0.4c0.8-1.1,1.6-2.4,2.3-3.7c0.6,0.3,1.2,0.6,1.9,0.9c-0.5,1-1.4,2.3-2.6,3.9
	c0.5,0.4,1.1,0.8,1.7,1.3c0.9-1.4,1.6-2.7,2-4l2.1,0.5c-0.5,1.9-2.2,4.2-5,7.2l2.7-0.4c-0.2-0.9-0.4-1.4-0.4-1.7l2-0.3
	c0.6,2.1,0.9,3.6,1,4.6l-2,0.2c-0.1-0.4-0.1-0.7-0.2-1l-1.5,0.2v10.1H241v-9.8L238,13.7z M240.3,15c-0.1,2.6-0.4,4.9-0.8,6.7l-2-0.3
	c0.5-2.4,0.8-4.6,0.8-6.6L240.3,15z M246.7,19.9l-1.9,0.2l-0.8-5l1.9-0.3L246.7,19.9z M249.7,13.7v9.4h-2.3V2.9
	c0-0.4,0.3-0.7,0.8-0.7h13.7c0.5,0,0.8,0.2,0.8,0.7v17.9c0,0.8-0.4,1.4-1.1,1.9c-0.9,0.5-2.6,0.6-5.3,0.2l-0.2-2.1
	c2,0.4,3.2,0.5,3.7,0.2c0.4-0.2,0.6-0.5,0.6-0.9v-6.4h-6.5v3.2c0,0.3,0.2,0.5,0.6,0.5h4.7v1.8h-6.3c-0.7,0-1-0.3-1-0.9v-4.6H249.7z
	 M260.4,8.2V4.2c0-0.1-0.1-0.1-0.2-0.1h-10.4c-0.1,0-0.2,0-0.2,0.1v4.1h5.9c0.9-1.7,1.4-2.9,1.6-3.7l2,0.7c-0.2,0.4-0.4,1-0.8,2
	c-0.2,0.4-0.4,0.7-0.5,1.1H260.4z M254,11.9v-1.8h-4.3v1.8H254z M253.2,4.7c0.4,0.8,0.7,1.7,0.9,2.9l-2,0.4
	c-0.3-1.2-0.6-2.1-0.9-2.8L253.2,4.7z M260.4,11.9v-1.8h-4.3v1.8H260.4z"/>
</svg>
