<svg xmlns="http://www.w3.org/2000/svg" width="16" height="16" viewBox="0 0 16 16">
    <g fill="#BF0000" fill-rule="evenodd">
        <path d="M0 0h3.429v1.143H0z"/>
        <path d="M1.143 0v3.429H0V0h1.143zm11.428 0H16v1.143h-3.429V0z"/>
        <path d="M16 0v3.429h-1.143V0H16zm0 15.62h-3.429v-1.144H16v1.143z"/>
        <path d="M14.857 15.62v-3.43H16v3.43h-1.143zm-11.428 0H0v-1.144h3.429v1.143z"/>
        <path d="M0 15.62V12.19h1.143v3.429z"/>
        <g>
            <path d="M7.048 9.198a2.667 2.667 0 1 1-.074-5.333 2.667 2.667 0 0 1 .074 5.333m0-6.666a4 4 0 1 0 0 8 4 4 0 0 0 0-8"/>
            <path d="M10.464 8.618l2.508 2.339a.762.762 0 1 1-1.04 1.114L9.426 9.733a.762.762 0 1 1 1.04-1.114z"/>
        </g>
    </g>
</svg>
