<?xml version="1.0" encoding="UTF-8"?>
<svg width="27px" height="24px" viewBox="0 0 27 24" version="1.1" xmlns="http://www.w3.org/2000/svg" xmlns:xlink="http://www.w3.org/1999/xlink">
    <!-- Generator: sketchtool 53.1 (72631) - https://sketchapp.com -->
    <title>A2251DD0-230D-412C-AC92-08F071F22B0C</title>
    <desc>Created with sketchtool.</desc>
    <g id="Page-1" stroke="none" stroke-width="1" fill="none" fill-rule="evenodd">
        <g id="Artboard" transform="translate(-286.000000, -118.000000)" fill="#BF0000" stroke="#BF0000" stroke-width="0.1">
            <g id="header_pix_icon" transform="translate(287.000000, 119.000000)">
                <path d="M12.2916667,16.9094637 C10.1340685,16.9094637 8.38492679,15.1532123 8.38492679,12.9868442 C8.38492679,10.8204761 10.1340685,9.0642247 12.2916667,9.0642247 C14.4492648,9.0642247 16.1984065,10.8204761 16.1984065,12.9868442 C16.1984065,15.1532123 14.4492648,16.9094637 12.2916667,16.9094637 M12.2916667,7.23439033 C9.1274768,7.23439033 6.5625,9.80979293 6.5625,12.9868442 C6.5625,16.1638955 9.1274768,18.7392981 12.2916667,18.7392981 C15.4558565,18.7392981 18.0208333,16.1638955 18.0208333,12.9868442 C18.0208333,9.80979293 15.4558565,7.23439033 12.2916667,7.23439033" id="Fill-1"></path>
                <path d="M8.04094934,5.94263847 L8.04094934,3.0377842 C8.30955781,2.45041764 8.96635716,1.80620034 9.73085817,1.80620034 L14.7187107,1.80620034 C15.4832117,1.80620034 16.1400111,2.45041764 16.4086196,3.0377842 L16.4375,5.94263847 L17.0638692,5.94263847 L21.4902268,5.94837821 C22.4913099,5.94837821 23.3103074,6.8150787 23.3103074,7.87447042 L23.3103074,18.6780247 C23.3103074,19.7374164 22.4913099,20.6041169 21.4902268,20.6041169 L3.32661252,20.6041169 C2.32527116,20.6041169 1.50627362,19.7374164 1.50627362,18.6780247 L1.50627362,7.87447042 C1.50627362,6.8150787 2.32527116,5.94837821 3.32661252,5.94837821 L8.04094934,5.94263847 Z M9.41111079,0.0308658009 C7.75736079,0.0308658009 6.40450393,1.59137013 6.40450393,3.0377842 L6.40450393,3.98320111 L3.00660686,3.98320111 C1.35285686,3.98320111 -3.55271368e-15,5.41512918 -3.55271368e-15,7.16492942 L-3.55271368e-15,19.3872923 C-3.55271368e-15,21.1373659 1.35285686,22.5690206 3.00660686,22.5690206 L21.9595168,22.5690206 C23.6132668,22.5690206 24.9661236,21.1373659 24.9661236,19.3872923 L24.9661236,7.16492942 C24.9661236,5.41512918 23.6132668,3.98320111 21.9595168,3.98320111 L18.0453232,3.98320111 L18.0453232,3.0377842 C18.0453232,1.59137013 16.6922081,0.0308658009 15.0387164,0.0308658009 L9.41111079,0.0308658009 Z" id="Fill-3"></path>
            </g>
        </g>
    </g>
</svg>