<svg xmlns="http://www.w3.org/2000/svg" width="31" height="31" viewBox="0 0 31 31">
    <g fill="#FFF" fill-rule="evenodd">
        <g fill-rule="nonzero">
            <path d="M0 0h6.643v2.214H0z"/>
            <path d="M2.215 0v6.643H0V0zM24.357 0H31v2.214h-6.643z"/>
            <path d="M31 0v6.643h-2.214V0zM31 30.262h-6.643v-2.214H31z"/>
            <path d="M28.785 30.262v-6.643H31v6.643zM6.643 30.262H0v-2.214h6.643z"/>
            <path d="M0 30.262V23.62h2.214v6.643z"/>
        </g>
        <g transform="translate(5.905 4.905)">
            <path d="M7.75 12.917a5.167 5.167 0 1 1 0-10.333 5.167 5.167 0 0 1 0 10.333M7.75 0a7.75 7.75 0 1 0 0 15.5 7.75 7.75 0 1 0 0-15.5"/>
            <rect width="9.595" height="2.952" x="10.994" y="13.661" fill-rule="nonzero" rx="1.476" transform="rotate(43 15.791 15.138)"/>
        </g>
    </g>
</svg>
