<?xml version="1.0" encoding="utf-8"?>
<!-- Generator: Adobe Illustrator 23.0.1, SVG Export Plug-In . SVG Version: 6.00 Build 0)  -->
<svg version="1.1" id="レイヤー_1" xmlns="http://www.w3.org/2000/svg" xmlns:xlink="http://www.w3.org/1999/xlink" x="0px"
	 y="0px" viewBox="0 0 60 60" style="enable-background:new 0 0 60 60;" xml:space="preserve">
<style type="text/css">
	.st0{fill:#FFFFFF;}
	.st1{fill:#BF0000;}
</style>
<g>
	<path class="st0" d="M60,50.5c0,5.2249985-4.2750015,9.5-9.5,9.5h-41C4.2750001,60,0,55.7249985,0,50.5v-41
		C0,4.2750001,4.2750001,0,9.5,0h41C55.7249985,0,60,4.2750001,60,9.5V50.5z"/>
	<g>
		<g>
			<g>
				<path d="M50.4201355,44.269825v9.7668076h-2.2639427V44.269825h-3.244976v-2.1128998h8.7553368v2.1128998H50.4201355z"/>
				<path d="M36.7669601,42.1569252l4.227829,7.2762108v-7.2762108h2.2635231v11.8797073h-2.2635231l-4.227829-7.622921v7.622921
					h-2.2634354V42.1569252H36.7669601z"/>
				<path d="M31.8904152,54.0366325h-2.2639008V42.1569252h2.2639008V54.0366325z"/>
				<path d="M27.6780796,48.1034889c0,3.6983223-2.0681515,6.1744843-5.1627598,6.1744843
					c-3.096302,0-5.16399-2.476162-5.16399-6.1744843c0-3.7135658,2.067688-6.1878624,5.1935806-6.1878624
					C25.6099281,41.9156265,27.6780796,44.4209557,27.6780796,48.1034889z M19.766531,48.1034889
					c0,2.5058784,1.0574875,4.0615425,2.7487888,4.0615425c1.690073,0,2.7475605-1.5701408,2.7475605-4.0760231
					c0-2.5810204-1.012064-4.0610771-2.7633934-4.0610771C20.7791023,44.0279312,19.766531,45.5224686,19.766531,48.1034889z"/>
				<path d="M12.0755816,42.1569252c2.3257084,0,4.0921946,1.7356682,4.0921946,4.0150185
					c0,2.2795258-1.7664862,4.0312767-4.0921946,4.0312767h-2.0370369v3.8334122H7.7735V42.1569252H12.0755816z
					 M11.925807,48.0895195c1.0259905,0,1.8261328-0.8457794,1.8261328-1.9328575
					c0-1.0707779-0.7855797-1.886837-1.8261328-1.886837h-1.8872623v3.8196945H11.925807z"/>
			</g>
			<g>
				<polygon class="st1" points="20.8088207,38.8297386 16.4040794,35.1337433 47.2920837,35.1337433 				"/>
				<path class="st1" d="M25.8252773,32.3617134v-8.1876049h3.5480843l6.1425648,8.1876049h6.2795982l-7.4225121-9.8796253
					c2.3131332-1.6603565,3.8323517-4.3602905,3.8323517-7.4184933c0-5.0225954-4.0840225-9.1018772-9.106535-9.1018772h-8.2900085
					v26.3999958H25.8252773z M25.8252773,10.9741535h3.2735519c2.2525978,0,4.09482,1.8324404,4.09482,4.0894413
					c0,2.2630138-1.8422222,4.094099-4.09482,4.094099h-3.2735519V10.9741535z"/>
			</g>
		</g>
	</g>
</g>
</svg>
