<svg xmlns="http://www.w3.org/2000/svg" width="54" height="16" viewBox="0 0 54 16">
    <g fill="none" fill-rule="evenodd" transform="translate(1 1)">
        <rect width="52.308" height="14.1" x="-.5" y="-.5" fill="#F5813D" stroke="#FFF" rx="6"/>
        <path fill="#FFF" d="M9.68 2.86h1.07v4.68h1.06v.93h-1.06V10H9.64V8.47H6.19V7.36l3.49-4.5zm-.07 1.48l-2.47 3.2h2.5v-3.2h-.03zm5.31-1.62c.87 0 1.54.31 2 .94.46.62.69 1.47.69 2.57 0 1.16-.25 2.11-.73 2.83-.49.72-1.15 1.08-1.97 1.08-1.41 0-2.2-.65-2.37-1.95h1.14c.14.66.55.99 1.24.99.47 0 .85-.24 1.14-.7.27-.44.41-.99.41-1.65v-.09h-.05c-.21.29-.46.51-.75.65-.28.13-.6.2-.96.2-.7 0-1.27-.23-1.69-.69-.42-.44-.62-1.01-.62-1.71 0-.72.24-1.31.72-1.77.48-.47 1.08-.7 1.8-.7zm.04.97c-.42 0-.76.14-1.02.42-.26.28-.38.64-.38 1.08 0 .44.12.79.38 1.05.24.26.58.4 1.02.4.43 0 .77-.14 1.02-.4.24-.27.37-.63.37-1.09 0-.46-.13-.81-.39-1.07s-.6-.39-1-.39zm5.96-.97c.87 0 1.54.31 2 .94.46.62.69 1.47.69 2.57 0 1.16-.25 2.11-.73 2.83-.49.72-1.15 1.08-1.97 1.08-1.41 0-2.2-.65-2.37-1.95h1.14c.14.66.55.99 1.24.99.47 0 .85-.24 1.14-.7.27-.44.41-.99.41-1.65v-.09h-.05c-.21.29-.46.51-.75.65-.28.13-.6.2-.96.2-.7 0-1.27-.23-1.69-.69-.42-.44-.62-1.01-.62-1.71 0-.72.24-1.31.72-1.77.48-.47 1.08-.7 1.8-.7zm.04.97c-.42 0-.76.14-1.02.42-.26.28-.38.64-.38 1.08 0 .44.12.79.38 1.05.24.26.58.4 1.02.4.43 0 .77-.14 1.02-.4.24-.27.37-.63.37-1.09 0-.46-.13-.81-.39-1.07s-.6-.39-1-.39zm4.63 1.4c-.16.1-.31.21-.46.31l-.67-.8c1.14-.67 2.14-1.63 3-2.87l1.05.24c-.14.21-.27.41-.4.59h3.29v.78c-.33.42-.66.78-.98 1.1h2.22v3.29h-2.26v1.73c0 .28.11.43.35.43h1.48c.12 0 .21-.07.27-.19.06-.13.11-.53.13-1.19l.99.31c-.08 1.01-.21 1.61-.39 1.81-.17.18-.44.27-.8.27h-2c-.72 0-1.07-.41-1.07-1.22V7.73h-.28c-.06.17-.13.33-.2.49-.51 1.14-1.74 2.1-3.7 2.86l-.67-.81c1.72-.64 2.83-1.42 3.35-2.33.04-.08.07-.15.1-.21h-2.35V5.09zm3.52-.65c.31-.28.62-.59.94-.94h-2.69c-.31.34-.63.65-.95.94h2.7zm2.52 2.31V5.41H29.5c-.02.48-.08.92-.16 1.34h2.29zm-3.36 0c.09-.41.15-.86.18-1.34h-1.84v1.34h1.66zm15.06-4.66v1.72h-.54v.42h-1.98v.37h2.07v3.12h-2.07v.4h2.53v.85h-2.53v.82h-1v-.82h-2.53v-.85h2.53v-.4h-2.08V4.6h2.08v-.37h-1.96v-.37h-.59V2.09h6.07zm-5.07 1.33h1.55v-.49h-1.55v.49zm2.55-.49v.49h1.52v-.49h-1.52zm1.07 4v-.4h-1.07v.4h1.07zm-2.07 0v-.4h-1.08v.4h1.08zM38.73 5.8h1.08v-.42h-1.08v.42zm2.08-.42v.42h1.07v-.42h-1.07zM35.4 1.83c.59.47 1.09.94 1.51 1.42l-.67.67c-.36-.44-.87-.93-1.52-1.45l.68-.64zm-.88 2.37h2.45v.81c-.3.5-.66.99-1.06 1.49h1.16v.68c-.14.72-.29 1.32-.47 1.78.08.06.15.12.22.18.32.28.62.48.9.6.29.1.7.16 1.24.18.54.01 1.16.02 1.86.02.72 0 1.66-.03 2.82-.08l-.24.98h-2.45c-.68 0-1.36-.02-2.03-.04-.68-.02-1.19-.09-1.54-.22-.42-.16-.79-.4-1.13-.73a.32.32 0 0 0-.23-.1c-.18 0-.49.43-.91 1.29l-.75-.7c.45-.86.88-1.37 1.3-1.54.18-.44.32-.91.43-1.43h-1.41v-.78c.46-.52.85-1 1.15-1.45h-1.31V4.2z"/>
    </g>
</svg>
