<?xml version="1.0" encoding="utf-8"?>
<!-- Generator: Adobe Illustrator 23.0.3, SVG Export Plug-In . SVG Version: 6.00 Build 0)  -->
<svg version="1.1" id="Layer_1" xmlns="http://www.w3.org/2000/svg" xmlns:xlink="http://www.w3.org/1999/xlink" x="0px" y="0px"
	 viewBox="0 0 24.04 24.04" style="enable-background:new 0 0 24.04 24.04;" xml:space="preserve">
<style type="text/css">
	.st0{clip-path:url(#SVGID_2_);}
	.st1{clip-path:url(#SVGID_4_);fill:#E4ECE6;}
	.st2{clip-path:url(#SVGID_4_);fill:#A9CAB4;}
	.st3{clip-path:url(#SVGID_4_);fill:#55925C;}
</style>
<g>
	<g>
		<defs>
			<rect id="SVGID_1_" width="24" height="24"/>
		</defs>
		<clipPath id="SVGID_2_">
			<use xlink:href="#SVGID_1_"  style="overflow:visible;"/>
		</clipPath>
		<g class="st0">
			<defs>
				<rect id="SVGID_3_" width="24" height="24"/>
			</defs>
			<clipPath id="SVGID_4_">
				<use xlink:href="#SVGID_3_"  style="overflow:visible;"/>
			</clipPath>
			<path class="st1" d="M12,0.67C5.74,0.67,0.67,5.74,0.67,12c0,1.39,0.26,2.72,0.72,3.95L15.95,1.39C14.72,0.93,13.39,0.67,12,0.67
				"/>
			<path class="st2" d="M15.95,1.39L1.39,15.95c1.6,4.31,5.74,7.39,10.61,7.39c6.26,0,11.33-5.07,11.33-11.33
				C23.33,7.13,20.26,2.99,15.95,1.39"/>
			<path class="st3" d="M12,0C5.37,0,0,5.37,0,12s5.37,12,12,12s12-5.37,12-12S18.63,0,12,0 M12,22C6.49,22,2,17.51,2,12
				S6.49,2,12,2s10,4.49,10,10S17.51,22,12,22"/>
			<polygon class="st3" points="17.68,5.74 17.68,18.33 15.28,18.33 15.28,9.32 12,14.11 8.72,9.32 8.72,18.33 6.32,18.33 
				6.32,5.74 8.99,5.74 12,10.12 15.01,5.74 			"/>
		</g>
	</g>
</g>
</svg>
