<?xml version="1.0" encoding="utf-8"?>
<!-- Generator: Adobe Illustrator 19.2.1, SVG Export Plug-In . SVG Version: 6.00 Build 0)  -->
<svg version="1.1" id="check_x5F_icon" xmlns="http://www.w3.org/2000/svg" xmlns:xlink="http://www.w3.org/1999/xlink" x="0px"
	 y="0px" viewBox="0 0 40 40" style="enable-background:new 0 0 40 40;" xml:space="preserve">
<style type="text/css">
	.st0{fill:#999999;}
</style>
<path class="st0" d="M20,0.2C9.1,0.2,0.2,9.1,0.2,20c0,10.9,8.9,19.8,19.8,19.8c10.9,0,19.8-8.9,19.8-19.8C39.8,9.1,30.9,0.2,20,0.2
	 M20,36.9c-9.3,0-16.9-7.6-16.9-16.9S10.7,3.1,20,3.1c9.3,0,16.9,7.6,16.9,16.9S29.3,36.9,20,36.9"/>
<path class="st0" d="M28.8,12.9L17.6,24.1l-5.8-5.8c-0.6-0.6-1.5-0.6-2,0c-0.6,0.6-0.6,1.5,0,2l6.8,6.8c0.3,0.3,0.6,0.4,1,0.4
	c0.4,0,0.7-0.1,1-0.4l12.2-12.2c0.6-0.6,0.6-1.5,0-2C30.3,12.3,29.4,12.3,28.8,12.9"/>
</svg>
