<?xml version="1.0" encoding="UTF-8"?>
<svg width="166px" height="97px" viewBox="0 0 166 97" version="1.1" xmlns="http://www.w3.org/2000/svg" xmlns:xlink="http://www.w3.org/1999/xlink">
    <!-- Generator: Sketch 55.2 (78181) - https://sketchapp.com -->
    <title>@1xArtboard</title>
    <desc>Created with Sketch.</desc>
    <defs>
        <polygon id="path-1" points="0.284472036 0.518051227 12.2530037 0.518051227 12.2530037 18.5962444 0.284472036 18.5962444"></polygon>
    </defs>
    <g id="Artboard" stroke="none" stroke-width="1" fill="none" fill-rule="evenodd">
        <g id="header/hamburger" transform="translate(8.000000, 29.000000)" fill="#FFFFFF">
            <g id="h_w" transform="translate(6.000000, 7.000000)">
                <g id="Group">
                    <rect id="Rectangle" x="0" y="-2.26485497e-14" width="17" height="2.64444444" rx="0.5"></rect>
                    <rect id="Rectangle" x="0" y="6.42222222" width="17" height="2.64444444" rx="0.5"></rect>
                    <rect id="Rectangle" x="0" y="12.8444444" width="17" height="2.64444444" rx="0.5"></rect>
                </g>
            </g>
        </g>
        <g id="icon/DU/user-icon2" transform="translate(45.000000, 30.000000)" fill="#FFFFFF">
            <g id="DU-menu/user-icon" transform="translate(7.000000, 3.000000)">
                <g id="Combined-Shape-2" fill-rule="nonzero">
                    <path d="M8,11 C4.99557096,11 2.56,8.53756612 2.56,5.5 C2.56,2.46243388 4.99557096,0 8,0 C11.004429,0 13.44,2.46243388 13.44,5.5 C13.44,8.53756612 11.004429,11 8,11 Z M8,9.70588235 C10.2975046,9.70588235 12.16,7.82284468 12.16,5.5 C12.16,3.17715532 10.2975046,1.29411765 8,1.29411765 C5.70249544,1.29411765 3.84,3.17715532 3.84,5.5 C3.84,7.82284468 5.70249544,9.70588235 8,9.70588235 Z M15.8284126,21.999893 L0.171608361,22 C0.0591444814,21.4271297 0,20.833203 0,20.2244652 C0,15.4872945 3.581722,11.6470588 8,11.6470588 C12.418278,11.6470588 16,15.4872945 16,20.2244652 C16,20.8331651 15.9408629,21.4270558 15.8284126,21.999893 Z M14.72,20.2244652 C14.72,16.1855779 11.6940024,12.9411765 8,12.9411765 C4.30599763,12.9411765 1.28,16.1855779 1.28,20.2244652 C1.28,20.38574 1.28482267,20.5462639 1.29441407,20.7058747 L14.7055914,20.705783 C14.7151792,20.5462024 14.72,20.3857092 14.72,20.2244652 Z" id="Combined-Shape"></path>
                </g>
            </g>
        </g>
        <g id="DU-menu/cart-icon2" transform="translate(81.000000, 29.000000)" fill="#FFFFFF">
            <g id="DU-menu/cart-icon" transform="translate(2.000000, 4.000000)">
                <path d="M6.26155061,5.25030496 L7.63214198,12.4439021 L18.5725335,12.4439021 L21.2320826,5.25030496 L6.26155061,5.25030496 Z M4.70881803,4.88014972 C4.65155021,4.77819105 4.61897037,4.66104278 4.61897037,4.53643809 C4.61897037,4.50437098 4.62112811,4.4727977 4.62530909,4.44185007 L4.05103147,1.42773373 L0.728515669,1.42773373 C0.326167575,1.42773373 0,1.10812465 0,0.713866864 C0,0.319609081 0.326167575,0 0.728515669,0 L4.65612245,0 C5.0069078,0 5.30788541,0.244959505 5.37226403,0.58285295 L5.98952544,3.82257123 L22.2708558,3.82257123 C22.776049,3.82257123 23.1278843,4.31415735 22.9558086,4.77959087 L19.7684113,13.4009217 C19.6639566,13.6834528 19.3901248,13.8716358 19.0834584,13.8716358 L7.90416716,13.8716358 L8.34849081,16.2036842 L18.8242907,16.2036842 C19.2266388,16.2036842 19.5528064,16.5232933 19.5528064,16.917551 C19.5528064,17.3118088 19.2266388,17.6314179 18.8242907,17.6314179 L7.74339983,17.6314179 C7.39261448,17.6314179 7.09163687,17.3864584 7.02725825,17.048565 L6.37877538,13.6449797 C6.2571614,13.5174144 6.18272814,13.3461093 6.18272814,13.157769 C6.18272814,13.0635705 6.20134765,12.9736333 6.23517702,12.8912987 L4.70881803,4.88014972 Z M9.53595308,22 C8.76478591,22 8.13963141,21.3874159 8.13963141,20.6317552 C8.13963141,19.8760945 8.76478591,19.2635104 9.53595308,19.2635104 C10.3071202,19.2635104 10.9322747,19.8760945 10.9322747,20.6317552 C10.9322747,21.3874159 10.3071202,22 9.53595308,22 Z M16.8211098,22 C16.0499426,22 15.4247881,21.3874159 15.4247881,20.6317552 C15.4247881,19.8760945 16.0499426,19.2635104 16.8211098,19.2635104 C17.5922769,19.2635104 18.2174314,19.8760945 18.2174314,20.6317552 C18.2174314,21.3874159 17.5922769,22 16.8211098,22 Z" id="Combined-Shape" fill-rule="nonzero"></path>
            </g>
        </g>
        <g id="ui-sp-cancel-icon" transform="translate(90.000000, 72.000000)">
            <g id="sp-cancel-icon">
                <circle id="Oval" fill="#898989" fill-rule="nonzero" cx="6" cy="6" r="6"></circle>
                <g id="Group-8" transform="translate(6.103301, 6.000000) rotate(-45.000000) translate(-6.103301, -6.000000) translate(2.603301, 2.000000)" fill="#FFFFFF" fill-rule="nonzero">
                    <rect id="Rectangle" x="0" y="3" width="7" height="2"></rect>
                    <rect id="Rectangle" transform="translate(3.500000, 4.000000) rotate(-90.000000) translate(-3.500000, -4.000000) " x="0" y="3" width="7" height="2"></rect>
                </g>
            </g>
        </g>
        <path d="M135.981185,50.1647174 C135.366263,50.7665789 134.737387,51.3821072 134.106152,52 C131.41087,49.3411598 128.696148,46.6632145 126,44.0035231 C128.706879,41.3435007 131.43161,38.665981 134.144552,36 C134.747347,36.5802026 135.381613,37.1907181 136,37.7859117 C133.912663,39.8590163 131.834564,41.9228521 129.761663,43.9815805 L135.981185,50.1647174 Z" id="Fill-1" fill="#FFFFFF" opacity="0.98999995" transform="translate(131.000000, 44.000000) rotate(-360.000000) translate(-131.000000, -44.000000) "></path>
        <g id="close_icon" transform="translate(117.000000, 64.000000)" fill="#555555">
            <g id="Group" transform="translate(13.995689, 13.581475) rotate(-270.000000) translate(-13.995689, -13.581475) translate(4.495689, 2.581475)">
                <rect id="Rectangle-14" transform="translate(9.500000, 11.578947) rotate(-45.000000) translate(-9.500000, -11.578947) " x="-1" y="10" width="21" height="3.15789474" rx="1.57894737"></rect>
                <rect id="Rectangle-14" transform="translate(9.500000, 11.578947) rotate(-135.000000) translate(-9.500000, -11.578947) " x="-1" y="10" width="21" height="3.15789474" rx="1.57894737"></rect>
            </g>
        </g>
        <g id="logo_w" transform="translate(4.000000, 1.000000)">
            <g id="Group-30">
                <path d="M94.9596931,9.6348555 C94.7324011,9.6348555 94.617565,9.52598099 94.617565,9.30883019 L94.617565,7.87850631 L96.5804875,7.87850631 L96.5804875,9.30883019 C96.5804875,9.52598099 96.4662465,9.6348555 96.2383595,9.6348555 L94.9596931,9.6348555 Z M94.617565,5.34388385 C94.617565,5.12673305 94.7324011,5.01785854 94.9596931,5.01785854 L96.2383595,5.01785854 C96.4662465,5.01785854 96.5804875,5.12673305 96.5804875,5.34388385 L96.5804875,6.43023608 L94.617565,6.43023608 L94.617565,5.34388385 Z M90.2680763,9.54392734 C90.4846582,9.29088384 90.7060002,9.00733156 90.9344822,8.69327048 C90.9463823,8.85060012 91.138569,9.33933898 91.1861695,9.50803465 C90.9225821,9.52059709 90.6161544,9.53256132 90.2680763,9.54392734 L90.2680763,9.54392734 Z M98.0834709,6.26752253 C98.1072712,6.29145099 99.440083,7.34789264 99.9565476,7.8420154 C99.4882785,8.54252116 99.0075142,9.18200934 98.5160398,9.76167636 L98.2459074,9.76167636 C98.197712,9.76167636 98.1435665,9.76765847 98.0834709,9.7796227 L98.0834709,6.26752253 Z M103.661051,16.9683312 C101.111453,16.1655313 99.0509496,15.1880536 97.4890606,13.9982108 L103.577155,13.9982108 C104.019839,13.9982108 104.170375,13.566302 104.170375,13.1200362 C104.170375,12.6737703 104.019839,12.2418616 103.577155,12.2418616 L96.4805267,12.2418616 L96.4805267,11.5359719 C96.4805267,11.3182229 96.3906809,11.1674736 96.2103942,11.0831257 L97.2367784,11.0831257 C97.4081399,11.0831257 97.5527262,11.0496259 97.6717273,10.9856172 C97.7074276,11.1662771 97.754433,11.2877141 97.8133385,11.3726601 C97.9162745,11.5204184 98.1774818,11.6053644 98.317308,11.5904092 C99.8548017,11.4235081 101.234619,11.2524196 102.45914,11.0831257 C102.495435,11.2524196 102.539466,11.4360706 102.539466,11.4360706 C102.625146,11.7848279 102.935144,12.0695766 103.467674,11.9535236 C103.964503,11.8452473 104.18406,11.4145349 104.039474,10.9545102 C104.017459,10.8845195 103.421264,8.86017151 103.264182,8.42168242 C103.136256,8.0639519 102.930979,7.78159603 102.405589,7.821078 C101.89805,7.85936354 101.637438,8.37442371 101.773099,8.79317181 C101.831409,8.97502813 101.973021,9.39317802 102.045611,9.6348555 C101.624943,9.65878396 101.102528,9.68331064 100.478367,9.7072391 C101.489281,8.57302995 102.49722,6.99853708 103.608095,4.83899328 C103.740781,4.58056588 103.765177,4.12891613 103.270132,3.86151556 C102.626931,3.51515106 102.174727,3.86450662 102.063461,4.10080019 C101.686228,4.90479655 101.280434,5.6615342 100.856791,6.37579882 C100.640804,6.15864802 100.364126,5.90560452 100.028543,5.61547191 C100.040443,5.60350768 100.598558,4.97598373 100.946636,4.38435248 C101.198919,3.97397934 101.391105,3.58514181 101.486901,3.20707209 C101.634463,2.62441402 101.486901,2.28642447 101.109073,2.13926443 C100.731245,1.99270259 100.333186,2.03038992 100.101729,2.4790486 C99.7090254,3.24117015 99.2490863,3.93808664 98.7135816,4.56561059 L98.6957314,4.58355693 C98.5844654,4.52313756 98.2798227,4.49322699 98.0834709,4.65594054 L98.0834709,4.56561059 C98.0834709,3.9620151 97.8061985,3.58753466 97.2367784,3.58753466 L96.3549805,3.58753466 L96.5709675,2.91753769 C96.6399881,2.65312817 96.5864376,2.4425577 96.3609306,2.23318364 C96.1348286,2.02380959 95.7004747,1.97595266 95.5802836,1.97595266 C95.3149113,1.97595266 95.0852392,2.12131808 95.0144336,2.33906709 L94.5717496,3.58753466 L93.9600842,3.58753466 C93.5281103,3.58753466 93.263333,3.80408725 93.1615871,4.17198737 C93.0955415,4.00209528 92.9682103,3.874078 92.6070421,3.78374805 C92.2464689,3.69341811 91.8644755,3.7550339 91.7264343,4.02243447 C91.588393,4.28983505 90.7422955,5.95705072 90.573909,6.19513893 C90.4697831,6.07190734 90.1782305,5.75425699 89.8902479,5.48865105 C90.1056398,5.28406269 90.3579221,4.92154648 90.6459046,4.40229883 C90.910682,3.99192568 91.0903736,3.59949889 91.1861695,3.22561665 C91.2224648,3.04435854 91.2403149,2.87566288 91.2403149,2.71893144 C91.2165147,2.4533255 91.0760935,2.25471926 90.8083411,2.15721077 C90.2573662,1.95621168 89.9479634,2.15481793 89.8051621,2.468879 C89.4850493,3.17237582 89.0828257,3.80229261 88.6115815,4.36640613 C88.5151906,4.30598676 88.4259398,4.26112089 88.3414491,4.23958528 C88.0778617,4.17258558 87.7327587,4.41785233 87.5149867,4.68585111 C87.2847197,4.97000161 87.212724,5.37080337 87.3013798,5.51377594 C87.3823005,5.64478427 87.7999943,5.97619349 88.1825827,6.29982595 C88.6806021,6.72036869 89.2785824,7.31738385 89.6558158,7.73373911 C89.2113468,8.40971819 88.7555728,9.03126002 88.2873036,9.5983646 C88.1308172,9.61092704 87.9630257,9.61631094 87.7833341,9.61631094 C87.3507653,9.64083762 87.1347783,9.82209573 87.1347783,10.1594871 C87.1347783,10.6912971 87.2008239,11.047233 87.3329151,11.2278929 C87.4406111,11.3726601 87.6149476,11.4456419 87.8553298,11.4456419 C89.2476422,11.2883123 90.5078634,11.1315809 91.6371835,10.9748494 C91.6841889,11.1555093 91.7115591,11.2751516 91.7371444,11.3792405 C91.8222301,11.728596 92.1185428,12.0133447 92.6510725,11.8972917 C93.1473069,11.7884172 93.383524,11.4127403 93.2389378,10.9533138 C93.0806663,10.4490215 92.5124363,8.46415544 92.3208446,8.15009436 C92.1887534,7.95747024 91.9483713,7.85457784 91.6008882,7.8420154 C91.588393,7.8420154 91.5645928,7.84859573 91.5288925,7.86055996 C92.0447621,7.08826881 92.5731268,6.17659437 93.1133916,5.12673305 L93.1133916,10.105648 C93.1133916,10.7092435 93.3912591,11.0831257 93.9600842,11.0831257 L94.9864683,11.0831257 C94.8061817,11.1674736 94.7157409,11.3182229 94.7157409,11.5359719 L94.7157409,12.2418616 L87.9082852,12.2418616 C87.4656013,12.2418616 87.3150649,12.6737703 87.3150649,13.1200362 C87.3150649,13.566302 87.4656013,13.9982108 87.9082852,13.9982108 L93.5638107,13.9982108 C92.3630899,15.0361078 90.5399937,15.932827 87.7297836,16.9174833 C87.1817838,17.1095092 87.1639336,17.7322474 87.3037598,18.2508969 C87.5245068,19.0722414 88.0522765,19.0339558 88.4699702,18.8742333 C91.0392031,17.8889789 93.3234285,16.5806901 94.7157409,15.3376065 L94.7157409,18.4590745 C94.7157409,18.9041439 95.1536648,19.0860002 95.5975388,19.0860002 C96.0420077,19.0860002 96.4805267,18.9041439 96.4805267,18.4590745 L96.4805267,15.2837674 C96.6685483,15.4799808 97.8317837,16.4383158 98.7195316,16.945001 C100.646754,18.0439157 102.725702,18.8341532 102.885759,18.8855993 C103.167196,18.9759293 103.753276,18.8945725 103.994849,18.3687445 C104.173945,17.9805052 104.282831,17.1645446 103.661051,16.9683312 L103.661051,16.9683312 Z" id="Fill-1" fill="#FFFFFF"></path>
                <path d="M121.900879,17.007873 C119.764215,15.8156374 118.517679,14.9003736 117.337783,13.6901916 C116.413145,12.7246781 115.740789,11.7292541 115.320715,10.7033212 L121.627771,10.7033212 C122.148401,10.7033212 122.325713,10.1960378 122.325713,9.67140623 C122.325713,9.14677467 122.147806,8.63889304 121.627771,8.63889304 L114.7983,8.63889304 C114.7864,8.54258098 114.78045,8.44567071 114.78045,8.34935864 L114.78045,5.10824831 L120.757279,5.10824831 C121.296353,5.10824831 121.479615,4.58361676 121.479615,4.04044064 C121.479615,3.49726453 121.296353,2.97203476 120.757279,2.97203476 L107.038836,2.97203476 C106.500356,2.97203476 106.317095,3.49726453 106.317095,4.04044064 C106.317095,4.58301854 106.500356,5.10824831 107.038836,5.10824831 L112.727682,5.10824831 L112.727682,8.33141229 C112.727682,8.41576013 112.721137,8.51865252 112.709237,8.63889304 L105.986272,8.63889304 C105.466237,8.63889304 105.288926,9.14617646 105.288926,9.67080802 C105.288926,10.1954396 105.466237,10.7033212 105.986272,10.7033212 L112.349259,10.7033212 C111.964885,11.9105122 111.268729,13.0142125 110.260195,14.0162169 C109.243926,15.1091495 107.673112,16.1572162 105.553703,17.1723812 C105.20027,17.3416751 105.119349,17.8657084 105.253225,18.3532509 C105.416257,18.9490696 105.773855,19.1219527 106.2808,19.1219527 C107.144747,19.1093903 108.633451,18.2892422 110.746314,16.6597139 C112.235018,15.548835 113.261402,14.287805 113.826062,12.8754274 C114.822101,14.3847153 115.944281,15.633781 117.193792,16.623223 C118.836006,17.9446724 120.102178,18.7450794 120.986356,19.020855 C121.327294,19.1273366 121.908614,19.1602383 122.184101,18.608089 C122.474464,18.0254309 122.402468,17.287836 121.900879,17.007873" id="Fill-3" fill="#FFFFFF"></path>
                <path d="M124.158507,17.3277966 C124.158507,17.8691781 124.680327,18.0534272 125.220592,18.0534272 C125.760857,18.0534272 126.283271,17.8691781 126.283271,17.3277966 L126.283271,9.65274203 C126.283271,9.50797483 126.440948,9.30877037 126.650985,9.30877037 L130.62324,9.30877037 L130.62324,18.6318978 C130.62324,19.1595204 131.13197,19.3389839 131.658549,19.3389839 C132.185129,19.3389839 132.694454,19.1595204 132.694454,18.6318978 L132.694454,9.30877037 L136.990987,9.30877037 C137.200429,9.30877037 137.358105,9.50797483 137.358105,9.65274203 L137.358105,14.3965598 C137.358105,15.3375467 137.171868,15.8083392 136.79999,15.8083392 C136.329936,15.7856071 135.691495,15.5672599 134.880503,15.1616725 C134.635956,15.0390391 134.059991,15.2292704 133.898744,15.6767326 C133.724408,16.1588912 133.617307,16.658996 134.02786,17.029289 C134.475304,17.43368 135.431478,17.7124466 136.889836,17.8727673 C137.87457,17.8727673 138.343434,17.6986878 138.778978,17.3331805 C139.214522,16.9676732 139.429319,16.200766 139.429319,14.6681479 L139.429319,8.33129265 C139.429319,7.67565276 139.027095,7.33527037 138.402934,7.33527037 L132.694454,7.33527037 L132.694454,5.81461654 L139.734556,5.81401833 C140.245666,5.81401833 140.419407,5.31570809 140.419407,4.80064792 C140.419407,4.28558775 140.245666,3.78667929 139.734556,3.78667929 L132.694454,3.78667929 L132.694454,2.50291724 C132.694454,1.97529463 132.185724,1.79523295 131.659144,1.79523295 C131.132565,1.79523295 130.62324,1.97529463 130.62324,2.50291724 L130.62324,3.78667929 L123.799124,3.78667929 C123.288015,3.78667929 123.114273,4.28498954 123.114273,4.8000497 C123.114273,5.31510987 123.288015,5.81401833 123.799124,5.81401833 L130.62324,5.81461654 L130.62324,7.33527037 L125.184892,7.33527037 C124.560731,7.33527037 124.158507,7.67565276 124.158507,8.33129265 L124.158507,17.3277966 Z" id="Fill-5" fill="#FFFFFF"></path>
                <path d="M147.09852,13.9778117 C146.861113,13.548894 146.339889,13.4615551 146.153057,13.5453048 C146.015611,13.6075188 145.700258,13.7391253 145.259954,13.9802046 L145.259954,7.31732403 L146.766507,7.31732403 C147.240727,7.31732403 147.402568,6.85430826 147.402568,6.375739 C147.402568,5.89716974 147.240727,5.43415398 146.766507,5.43415398 L145.259954,5.43415398 L145.259954,2.62196135 C145.259954,2.14040103 144.795255,1.97649105 144.314491,1.97649105 C143.834321,1.97649105 143.369622,2.14040103 143.369622,2.62196135 L143.369027,5.43415398 L142.02729,5.43415398 C141.553071,5.43415398 141.39123,5.89716974 141.39123,6.375739 C141.39123,6.85371005 141.553071,7.31732403 142.02729,7.31732403 L143.369027,7.31732403 L143.386877,14.9576823 C142.774617,15.2352525 142.494369,15.366859 142.00111,15.5810188 C141.47453,15.8101338 141.245453,16.3939883 141.513206,17.0334765 C141.744068,17.5832329 142.224832,17.7028752 142.703216,17.5150368 C143.141735,17.3427519 143.909887,16.9886106 144.989822,16.4059525 C145.880545,15.9740438 146.705817,15.4266802 147.020575,15.1257798 C147.262147,14.8948701 147.335928,14.4067294 147.09852,13.9778117" id="Fill-7" fill="#FFFFFF"></path>
                <path d="M157.596616,11.264324 C158.025614,11.264324 158.171391,10.8455759 158.171391,10.4130689 C158.171391,9.98056197 158.025614,9.56241208 157.596616,9.56241208 L147.149512,9.56241208 C146.720514,9.56241208 146.574142,9.98116018 146.574142,10.4130689 C146.574142,10.8461741 146.720514,11.264324 147.149512,11.264324 L149.599744,11.264324 C149.131475,11.7829735 148.494819,12.2334268 147.582676,12.7616476 C147.206633,12.9787984 147.170338,13.5010371 147.323849,14.0154991 C147.443445,14.4180955 147.744518,14.580809 148.237777,14.4844969 C148.679866,14.3983545 148.995814,14.1243736 149.347462,13.8168928 L150.698124,13.8168928 C150.001373,14.5293628 148.948213,15.1449225 147.40239,15.8424372 C147.170933,15.9471243 146.877,16.2719531 147.111432,17.0346729 C147.340509,17.7788481 147.998585,17.6101524 148.397239,17.4097516 C150.689794,16.2569979 151.946445,15.1694492 152.787188,13.8168928 L153.831422,13.8168928 C153.327452,15.1449225 152.137442,16.1965785 150.013868,17.1303868 C149.528344,17.3439483 149.481338,17.8937047 149.69792,18.3800507 C149.913907,18.8657985 150.426207,19.0309049 150.84866,18.8741735 C151.206854,18.7413705 151.748903,18.4350862 152.349264,18.0342845 C153.964703,16.9563072 155.038093,15.7850089 155.506362,13.8168928 L155.938336,13.8168928 C156.070427,13.8168928 156.136473,13.9317494 156.136473,14.1614627 C156.088277,15.7545001 156.012711,16.4448363 155.89609,16.7858169 C155.780064,17.1267975 155.579548,17.3475376 155.290375,17.3475376 C154.900646,17.3475376 154.76677,17.165083 154.449037,17.0926994 C154.112859,17.0161283 153.729676,17.2171274 153.66244,17.6891164 C153.576165,18.2951047 153.771921,18.6665941 154.101554,18.8322987 C154.337176,18.9501464 154.851856,19.0309049 155.668203,19.0309049 C156.43457,18.9651017 156.94925,18.7461562 157.214027,18.3734704 C157.289593,18.267587 157.864963,17.5688758 157.901258,13.4370285 C157.908993,12.5438986 157.58888,12.0970345 156.96472,12.0970345 L150.986107,12.0970345 C151.166393,11.8433928 151.328235,11.5664209 151.472821,11.264324 L157.596616,11.264324 Z" id="Fill-9" fill="#FFFFFF"></path>
                <path d="M149.996018,6.24036372 L155.776494,6.24036372 L155.776494,6.89241434 C155.776494,7.08922595 155.644403,7.18194875 155.487917,7.18194875 L150.284,7.18194875 C150.127514,7.18194875 149.996018,7.08922595 149.996018,6.89241434 L149.996018,6.24036372 Z M149.996018,4.14004287 C149.996018,3.94323126 150.127514,3.85050847 150.284,3.85050847 L155.487917,3.85050847 C155.644403,3.85050847 155.776494,3.94323126 155.776494,4.14004287 L155.776494,4.79209349 L149.996018,4.79209349 L149.996018,4.14004287 Z M149.347462,8.8019057 L156.406605,8.8019057 C157.127156,8.8019057 157.49963,8.46989827 157.52343,7.80588342 L157.52343,3.22597558 C157.49963,2.56196073 157.127156,2.2299533 156.406605,2.2299533 L149.347462,2.2299533 C148.627506,2.2299533 148.254437,2.56196073 148.231232,3.22597558 L148.231232,7.80588342 C148.254437,8.46989827 148.627506,8.8019057 149.347462,8.8019057 L149.347462,8.8019057 Z" id="Fill-11" fill="#FFFFFF"></path>
                <polygon id="Fill-13" fill="#FFFFFF" points="66.2069543 21.22012 16.4490406 21.22012 20.412371 25.2048074"></polygon>
                <path d="M18.170986,15.74116 C16.4520157,15.74116 15.1935795,14.0392481 15.1935795,11.8898739 C15.1935795,9.74169609 16.4520157,8.03978415 18.170986,8.03978415 C19.8917413,8.03978415 21.1049572,9.74169609 21.1049572,11.8898739 C21.1049572,14.0392481 19.8917413,15.74116 18.170986,15.74116 L18.170986,15.74116 Z M21.0579517,5.10196709 L21.0579517,5.70436615 C20.1339085,5.1127349 19.3056611,4.76876324 18.170986,4.76876324 C14.6848499,4.76876324 12.0370763,7.96440949 12.0370763,11.8898739 C12.0370763,15.8159365 14.6848499,19.0097881 18.170986,19.0097881 C19.3056611,19.0097881 20.1339085,18.6670128 21.0579517,18.0747834 L21.0579517,18.6765842 L24.1222291,18.6765842 L24.1222291,5.10196709 L21.0579517,5.10196709 Z" id="Fill-15" fill="#FFFFFF"></path>
                <path d="M45.6050146,5.10208673 L45.6050146,13.0762471 C45.6050146,14.5723742 44.5827955,15.8351989 43.0940922,15.8351989 C41.6065789,15.8351989 40.5837648,14.5723742 40.5837648,13.0762471 L40.5837648,5.10208673 L37.5194875,5.10208673 L37.5194875,13.0762471 C37.5194875,16.3484644 39.7454023,19.0099077 43.0006764,19.0099077 C44.5078248,19.0099077 45.6050146,18.1718133 45.6050146,18.1718133 L45.6050146,18.6767039 L48.6692919,18.6767039 L48.6692919,5.10208673 L45.6050146,5.10208673 Z" id="Fill-17" fill="#FFFFFF"></path>
                <path d="M74.1580101,18.6765842 L74.1580101,10.7024239 C74.1580101,9.20689494 75.1802293,7.94347209 76.6689325,7.94347209 C78.1564458,7.94347209 79.1792599,9.20689494 79.1792599,10.7024239 L79.1792599,18.6765842 L82.2435372,18.6765842 L82.2435372,10.7024239 C82.2435372,7.43020655 80.0176224,4.76876324 76.7623484,4.76876324 C75.2551999,4.76876324 74.1580101,5.60685766 74.1580101,5.60685766 L74.1580101,5.10196709 L71.0937328,5.10196709 L71.0937328,18.6765842 L74.1580101,18.6765842 Z" id="Fill-19" fill="#FFFFFF"></path>
                <path d="M3.20487707,4.93895443 L5.29632072,4.93895443 C6.73504355,4.93895443 7.91255904,6.11623482 7.91255904,7.56570147 C7.91255904,9.01935561 6.73504355,10.1954396 5.29632072,10.1954396 L3.20487707,10.1954396 L3.20487707,4.93895443 Z M3.20487707,18.6762851 L3.20487707,13.4174071 L5.47184728,13.4174071 L9.39590727,18.6762851 L13.408028,18.6762851 L8.66583576,12.3304567 C10.1438289,11.2644437 11.1142826,9.5302283 11.1142826,7.56570147 C11.1142826,4.33954643 8.50518433,1.71937972 5.29632072,1.71937972 L0.000178501591,1.71937972 L0.000178501591,18.6762851 L3.20487707,18.6762851 Z" id="Fill-21" fill="#FFFFFF"></path>
                <path d="M56.928382,15.464547 C56.6528946,15.6523854 56.3060065,15.798349 55.9037829,15.798349 C55.4027884,15.798349 54.45911,15.413699 54.45911,14.132928 L54.45911,8.32369536 L57.0795134,8.32369536 L57.0795134,5.1017278 L54.45911,5.1017278 L54.45911,1.71943954 L51.3942377,1.71943954 L51.3948327,5.1017278 L49.7734432,5.1017278 L49.7734432,8.32369536 L51.3948327,8.32369536 L51.3948327,14.1801867 C51.3936427,17.2113248 53.6653729,19.021513 55.9507883,19.021513 C56.8022409,19.021513 57.9839214,18.74155 58.94783,18.1672669 L56.928382,15.464547 Z" id="Fill-23" fill="#FFFFFF"></path>
                <g id="Group-27" transform="translate(25.585228, 0.080220)">
                    <mask id="mask-2" fill="white">
                        <use xlink:href="#path-1"></use>
                    </mask>
                    <g id="Clip-26"></g>
                    <polygon id="Fill-25" fill="#FFFFFF" mask="url(#mask-2)" points="6.15538938 11.3848038 11.4116662 5.02162727 7.11632294 5.02162727 3.43978517 9.7504898 3.43978517 0.5176923 0.284472036 0.5176923 0.284472036 18.5962444 3.43978517 18.5962444 3.43978517 13.0203143 7.95944546 18.5962444 12.2530037 18.5962444"></polygon>
                </g>
                <path d="M66.68159,10.1371738 L61.1623208,10.1371738 C61.8073065,6.95767923 66.0842047,6.77522469 66.68159,10.1371738 M64.0064461,4.75745704 C60.4596195,4.75745704 57.9159718,7.89088929 57.9159718,11.8893355 C57.9159718,16.0935664 61.1093653,19.0218121 64.3110889,19.0218121 C65.9271233,19.0218121 67.9983367,18.4648771 69.7381322,15.9834955 L67.0314531,14.4119937 C64.9382244,17.5143189 61.4497083,15.9398261 61.0468898,12.8375008 L69.8737934,12.8398937 C70.6288552,7.9638711 67.4931772,4.75745704 64.0064461,4.75745704" id="Fill-28" fill="#FFFFFF"></path>
            </g>
        </g>
        <path d="M60.3583333,81.4108938 C58.3733431,81.4108938 56.7641326,79.8073598 56.7641326,77.8293716 C56.7641326,75.8513834 58.3733431,74.2478494 60.3583333,74.2478494 C62.3433236,74.2478494 63.952534,75.8513834 63.952534,77.8293716 C63.952534,79.8073598 62.3433236,81.4108938 60.3583333,81.4108938 M60.3583333,72.5771311 C57.4472787,72.5771311 55.0875,74.9285856 55.0875,77.8293716 C55.0875,80.7301575 57.4472787,83.0816121 60.3583333,83.0816121 C63.269388,83.0816121 65.6291667,80.7301575 65.6291667,77.8293716 C65.6291667,74.9285856 63.269388,72.5771311 60.3583333,72.5771311" id="Fill-1" stroke="#BF0000" stroke-width="0.5" fill="#BF0000"></path>
        <path d="M56.4476734,71.3977055 L56.4476734,68.7454472 C56.6947932,68.209156 57.2990486,67.6209576 58.0023895,67.6209576 L62.5912139,67.6209576 C63.2945548,67.6209576 63.8988102,68.209156 64.14593,68.7454472 L64.1725,71.3977055 L64.7487597,71.3977055 L68.8210087,71.4029461 C69.7420051,71.4029461 70.4954828,72.1942813 70.4954828,73.161552 L70.4954828,83.0256668 C70.4954828,83.9929375 69.7420051,84.7842727 68.8210087,84.7842727 L52.1104835,84.7842727 C51.1892495,84.7842727 50.4357717,83.9929375 50.4357717,83.0256668 L50.4357717,73.161552 C50.4357717,72.1942813 51.1892495,71.4029461 52.1104835,71.4029461 L56.4476734,71.3977055 Z M57.7082219,66 C56.1867719,66 54.9421436,67.4248083 54.9421436,68.7454472 L54.9421436,69.608654 L51.8160783,69.608654 C50.2946283,69.608654 49.05,70.9160666 49.05,72.5137103 L49.05,83.673259 C49.05,85.2711523 50.2946283,86.5783153 51.8160783,86.5783153 L69.2527554,86.5783153 C70.7742054,86.5783153 72.0188337,85.2711523 72.0188337,83.673259 L72.0188337,72.5137103 C72.0188337,70.9160666 70.7742054,69.608654 69.2527554,69.608654 L65.6516974,69.608654 L65.6516974,68.7454472 C65.6516974,67.4248083 64.4068315,66 62.8856191,66 L57.7082219,66 Z" id="Fill-3" stroke="#BF0000" stroke-width="0.5" fill="#BF0000"></path>
        <path d="M33.6036036,85.7368421 L28.3963964,80.2631579 C29.6726727,78.7368421 30.4894895,76.7894737 30.4894895,74.5789474 C30.4894895,69.8421053 26.8138138,66 22.2192192,66 C17.6756757,66.0526316 14,69.8421053 14,74.5789474 C14,79.3157895 17.6756757,83.1578947 22.2702703,83.1578947 C24.2102102,83.1578947 25.9459459,82.4736842 27.3753754,81.3157895 L32.5825826,86.7894737 C32.7357357,86.9473684 32.8888889,87 33.0930931,87 C33.2972973,87 33.4504505,86.9473684 33.6036036,86.7894737 C33.9099099,86.5263158 33.9099099,86.0526316 33.6036036,85.7368421 Z M15.4294294,74.5789474 C15.4294294,70.6842105 18.4924925,67.5263158 22.2192192,67.5263158 C25.9459459,67.5263158 29.009009,70.6842105 29.009009,74.5789474 C29.009009,78.4736842 25.996997,81.6315789 22.2192192,81.6315789 C18.4924925,81.6315789 15.4294294,78.4736842 15.4294294,74.5789474 Z" id="Shape" stroke="#BF0000" stroke-width="1.3" fill="#BF0000" fill-rule="nonzero"></path>
    </g>
</svg>