<svg xmlns="http://www.w3.org/2000/svg" width="26" height="26" viewBox="0 0 26 26">
    <g fill="none" fill-rule="evenodd">
        <path d="M0 0h26v26H0z"/>
        <path fill="#ADADAD" fill-rule="nonzero" d="M12.244 18.41v1.395c0 .36.261.63.61.63.35 0 .611-.27.611-.63V18.41c.611-.27 1.004-.855 1.004-1.575 0-.945-.742-1.665-1.614-1.665-.873 0-1.615.765-1.615 1.665 0 .72.393 1.305 1.004 1.575z"/>
        <path fill="#ADADAD" fill-rule="nonzero" d="M19.313 12.56h-1.091v-2.025c0-3.06-2.4-5.535-5.367-5.535-2.968 0-5.368 2.475-5.411 5.535v2.025H6.396c-.654 0-1.221.585-1.221 1.26v7.875c0 .675.567 1.26 1.221 1.26h12.917c.654 0 1.222-.585 1.222-1.26v-7.83c0-.72-.524-1.305-1.222-1.305zM8.665 10.535c0-2.385 1.877-4.275 4.19-4.275 2.312 0 4.145 1.935 4.189 4.275v2.025H8.665v-2.025zM19.313 21.74H6.396v-7.875h12.917v7.875z"/>
    </g>
</svg>
