<?xml version="1.0" encoding="utf-8"?>
<!-- Generator: Adobe Illustrator 23.0.3, SVG Export Plug-In . SVG Version: 6.00 Build 0)  -->
<svg version="1.1" id="Layer_1" xmlns="http://www.w3.org/2000/svg" xmlns:xlink="http://www.w3.org/1999/xlink" x="0px" y="0px"
	 viewBox="0 0 24.04 24.04" style="enable-background:new 0 0 24.04 24.04;" xml:space="preserve">
<style type="text/css">
	.st0{clip-path:url(#SVGID_2_);}
	.st1{clip-path:url(#SVGID_4_);fill:#E2DAD3;}
	.st2{clip-path:url(#SVGID_4_);fill:#BFAD9F;}
	.st3{clip-path:url(#SVGID_4_);fill:#714C29;}
</style>
<g>
	<g>
		<defs>
			<rect id="SVGID_1_" x="0" width="24" height="24"/>
		</defs>
		<clipPath id="SVGID_2_">
			<use xlink:href="#SVGID_1_"  style="overflow:visible;"/>
		</clipPath>
		<g class="st0">
			<defs>
				<rect id="SVGID_3_" x="0" width="24" height="24"/>
			</defs>
			<clipPath id="SVGID_4_">
				<use xlink:href="#SVGID_3_"  style="overflow:visible;"/>
			</clipPath>
			<path class="st1" d="M12,0.67C5.74,0.67,0.67,5.74,0.67,12c0,1.39,0.26,2.72,0.72,3.95L15.95,1.39C14.72,0.93,13.39,0.67,12,0.67
				"/>
			<path class="st2" d="M15.95,1.39L1.39,15.95c1.6,4.31,5.74,7.39,10.61,7.39c6.26,0,11.33-5.07,11.33-11.33
				C23.33,7.13,20.26,2.99,15.95,1.39"/>
			<path class="st3" d="M12,0C5.37,0,0,5.37,0,12s5.37,12,12,12s12-5.37,12-12S18.63,0,12,0 M12,22C6.49,22,2,17.51,2,12
				S6.49,2,12,2s10,4.49,10,10S17.51,22,12,22"/>
			<path class="st3" d="M12.82,5.74c2.13,0,3.76,1.54,3.76,3.54c0,1.22-0.75,2.24-1.9,2.59c1.57,0.27,2.53,1.34,2.53,2.85
				c0,2.17-1.5,3.62-3.76,3.62H7.93V5.74H12.82z M10.33,10.93h2.34c0.74,0,1.35-0.66,1.35-1.49c0-0.8-0.62-1.46-1.38-1.46h-2.3
				V10.93z M10.33,16.09h2.96c0.75,0,1.36-0.64,1.36-1.46c0-0.83-0.61-1.49-1.36-1.49h-2.96V16.09z"/>
		</g>
	</g>
</g>
</svg>
