<?xml version="1.0" encoding="utf-8"?>
<!-- Generator: Adobe Illustrator 23.0.3, SVG Export Plug-In . SVG Version: 6.00 Build 0)  -->
<svg version="1.1" id="Layer_1" xmlns="http://www.w3.org/2000/svg" xmlns:xlink="http://www.w3.org/1999/xlink" x="0px" y="0px"
	 viewBox="0 0 24.04 24.04" style="enable-background:new 0 0 24.04 24.04;" xml:space="preserve">
<style type="text/css">
	.st0{clip-path:url(#SVGID_2_);}
	.st1{clip-path:url(#SVGID_4_);fill:#8BACD0;}
	.st2{clip-path:url(#SVGID_4_);fill:#1A55A5;}
	.st3{clip-path:url(#SVGID_4_);fill:#FFFFFF;}
	.st4{clip-path:url(#SVGID_4_);fill:#3580A9;}
</style>
<g>
	<g>
		<defs>
			<rect id="SVGID_1_" x="0" width="24" height="24"/>
		</defs>
		<clipPath id="SVGID_2_">
			<use xlink:href="#SVGID_1_"  style="overflow:visible;"/>
		</clipPath>
		<g class="st0">
			<defs>
				<rect id="SVGID_3_" x="0" width="24" height="24"/>
			</defs>
			<clipPath id="SVGID_4_">
				<use xlink:href="#SVGID_3_"  style="overflow:visible;"/>
			</clipPath>
			<path class="st1" d="M12,0.67C5.74,0.67,0.67,5.74,0.67,12c0,1.39,0.26,2.72,0.72,3.95L15.95,1.39C14.72,0.93,13.39,0.67,12,0.67
				"/>
			<path class="st2" d="M15.95,1.39L1.39,15.95c1.6,4.31,5.74,7.39,10.61,7.39c6.26,0,11.33-5.07,11.33-11.33
				C23.33,7.13,20.26,2.99,15.95,1.39"/>
			<path class="st3" d="M12.9,5.74c2.46,0,4.34,1.84,4.34,4.26s-1.87,4.27-4.34,4.27h-2.16v4.06h-2.4V5.74H12.9z M12.74,12.03
				c1.09,0,1.94-0.9,1.94-2.05c0-1.14-0.83-2-1.94-2h-2v4.05H12.74z"/>
			<path class="st4" d="M12,2c5.51,0,10,4.49,10,10s-4.49,10-10,10S2,17.51,2,12S6.49,2,12,2 M12,0C5.37,0,0,5.37,0,12
				s5.37,12,12,12s12-5.37,12-12S18.63,0,12,0"/>
		</g>
	</g>
</g>
</svg>
