<svg xmlns="http://www.w3.org/2000/svg" width="26" height="22" viewBox="0 0 26 22">
    <g fill="#555" fill-rule="evenodd" stroke="#555" stroke-width=".5">
        <path d="M12.657 16.17a3.513 3.513 0 1 1 0-7.025 3.513 3.513 0 0 1 0 7.025m0-8.664a5.15 5.15 0 1 0 0 10.302 5.15 5.15 0 0 0 0-10.302"/>
        <path d="M23.198 17.951c0 .974-.78 1.771-1.733 1.771H4.168c-.953 0-1.733-.797-1.733-1.771V8.019c0-.974.78-1.771 1.733-1.771l4.489-.005v-2.67c.168-.355.504-.716.915-.933h6.139c.411.217.747.578.915.933v2.67h.624l4.215.005c.953 0 1.733.797 1.733 1.771v9.932zM21.912 4.442h-3.728v-.869c0-1.094-.921-2.477-2.106-2.773l.045.005H9.188c-1.199.289-2.089 1.666-2.089 2.768v.869H3.863C2.289 4.442 1 5.758 1 7.367v11.236c0 1.609 1.289 2.925 2.863 2.925h18.049c1.575 0 2.863-1.316 2.863-2.925V7.367c0-1.609-1.288-2.925-2.863-2.925z"/>
    </g>
</svg>
