<?xml version="1.0" encoding="UTF-8"?>
<svg width="360px" height="50px" viewBox="0 0 360 50" version="1.1" xmlns="http://www.w3.org/2000/svg" xmlns:xlink="http://www.w3.org/1999/xlink" style="background: #FFFFFF;">
    <!-- Generator: Sketch 63.1 (92452) - https://sketch.com -->
    <title>Super Sale background</title>
    <desc>Created with Sketch.</desc>
    <defs>
        <linearGradient x1="100%" y1="50%" x2="0.987177142%" y2="50%" id="linearGradient-1">
            <stop stop-color="#FCCB00" stop-opacity="0" offset="0%"></stop>
            <stop stop-color="#FC6F17" stop-opacity="0.7" offset="100%"></stop>
        </linearGradient>
        <linearGradient x1="100%" y1="50%" x2="26.9806132%" y2="50%" id="linearGradient-2">
            <stop stop-color="#F9C800" stop-opacity="0" offset="0%"></stop>
            <stop stop-color="#FF9E00" stop-opacity="0.897848491" offset="100%"></stop>
        </linearGradient>
        <linearGradient x1="31.7370605%" y1="41.3194444%" x2="83.9959717%" y2="58.6805556%" id="linearGradient-3">
            <stop stop-color="#BF0000" offset="0%"></stop>
            <stop stop-color="#B00000" offset="100%"></stop>
        </linearGradient>
        <linearGradient x1="123.021907%" y1="50%" x2="23.5763236%" y2="50%" id="linearGradient-4">
            <stop stop-color="#FDF6F6" stop-opacity="0" offset="0%"></stop>
            <stop stop-color="#690000" stop-opacity="0.25" offset="100%"></stop>
        </linearGradient>
    </defs>
    <g id="PC_item-page" stroke="none" stroke-width="1" fill="none" fill-rule="evenodd">
        <g id="GI-19081_mweb_Countdowns" transform="translate(-7.000000, -325.000000)">
            <g id="Super-Sale-background" transform="translate(8.000000, 325.000000)">
                <rect id="Rectangle-Copy-36" fill="#FFFFFF" x="0" y="0" width="359" height="50"></rect>
                <rect id="Rectangle-Copy-37" fill="url(#linearGradient-1)" opacity="0.8" x="0" y="0" width="359" height="50"></rect>
                <polygon id="Rectangle-Copy-42" fill="url(#linearGradient-2)" opacity="0.8" points="67.3741767 0 200.012161 0 288.4 50 153.476895 50 0.4 50"></polygon>
                <polygon id="Rectangle-Copy-31" fill="#A80000" points="3.19744231e-13 0 120 0 101.602481 50 1.0658141e-13 50"></polygon>
                <polygon id="Rectangle-Copy-33" fill="url(#linearGradient-3)" transform="translate(60.000000, 25.000000) scale(1, -1) translate(-60.000000, -25.000000) " points="0 0 120 0 101.602481 50 0 50"></polygon>
                <g id="Group-35" transform="translate(19.000000, 8.000000)" fill="#FFFFFF">
                    <path d="M6.0585,25.9494 C5.5745,25.3894 4.9535,25.0924 4.2935,25.0924 C3.5615,25.0924 2.9905,25.5764 2.9905,26.2104 C2.9905,26.5704 3.1635,26.8314 3.5615,27.0544 C3.7855,27.1664 3.7855,27.1664 4.9145,27.5524 C6.8785,28.2104 7.6985,29.1174 7.6985,30.6084 C7.6985,32.3224 6.2575,33.5274 4.1955,33.5274 C2.8655,33.5274 1.6855,32.9564 0.8025,31.8754 L1.9705,30.5834 C2.5675,31.3414 3.3995,31.7884 4.2065,31.7884 C5.1395,31.7884 5.7225,31.3414 5.7225,30.6204 C5.7225,30.1234 5.5485,29.8254 5.1265,29.5894 C4.8405,29.4284 4.7295,29.3904 3.9465,29.1414 C1.8465,28.4834 1.0015,27.6384 1.0015,26.2104 C1.0015,24.5694 2.4065,23.3524 4.2825,23.3524 C5.4245,23.3524 6.4315,23.7614 7.2505,24.5694 L6.0585,25.9494 Z" id="Fill-1"></path>
                    <path d="M15.8222,29.3156 C15.8222,32.0006 14.4922,33.5276 12.1322,33.5276 C9.7712,33.5276 8.4412,32.0116 8.4412,29.3156 L8.4412,23.5506 L10.3052,23.5506 L10.3052,29.3036 C10.3052,30.8816 10.9762,31.7886 12.1322,31.7886 C13.2872,31.7886 13.9582,30.8816 13.9582,29.3036 L13.9582,23.5506 L15.8222,23.5506 L15.8222,29.3156 Z" id="Fill-3"></path>
                    <path d="M20.3534,28.4338 C21.1984,28.4338 21.8564,27.7388 21.8564,26.8438 C21.8564,25.9608 21.2104,25.2898 20.3534,25.2898 L18.8004,25.2898 L18.8004,28.4338 L20.3534,28.4338 Z M20.4774,23.5508 C22.3904,23.5508 23.8444,24.9798 23.8444,26.8558 C23.8444,28.7318 22.3904,30.1728 20.4774,30.1728 L18.8004,30.1728 L18.8004,33.3298 L16.9364,33.3298 L16.9364,23.5508 L20.4774,23.5508 Z" id="Fill-5"></path>
                    <polygon id="Fill-7" points="26.4511 25.2902 26.4511 27.3402 30.1041 27.3402 30.1041 29.0802 26.4511 29.0802 26.4511 31.5902 30.5641 31.5902 30.5641 33.3292 24.5881 33.3292 24.5881 23.5512 30.5641 23.5512 30.5641 25.2902"></polygon>
                    <path d="M33.5429,28.4338 L34.7479,28.4338 C35.5799,28.4338 36.2639,27.7258 36.2639,26.8558 C36.2639,25.9988 35.5669,25.2898 34.7479,25.2898 L33.5429,25.2898 L33.5429,28.4338 Z M31.6789,33.3298 L31.6789,23.5508 L34.7479,23.5508 C36.7229,23.5508 38.2509,25.0048 38.2509,26.8688 C38.2509,28.1728 37.7539,29.0798 36.7609,29.5648 L39.2079,33.3298 L36.8589,33.3298 L34.9959,30.1728 L33.5429,30.1728 L33.5429,33.3298 L31.6789,33.3298 Z" id="Fill-9"></path>
                    <path d="M46.5224,25.9494 C46.0374,25.3894 45.4164,25.0924 44.7574,25.0924 C44.0244,25.0924 43.4534,25.5764 43.4534,26.2104 C43.4534,26.5704 43.6264,26.8314 44.0244,27.0544 C44.2484,27.1664 44.2484,27.1664 45.3784,27.5524 C47.3424,28.2104 48.1624,29.1174 48.1624,30.6084 C48.1624,32.3224 46.7204,33.5274 44.6584,33.5274 C43.3294,33.5274 42.1484,32.9564 41.2664,31.8754 L42.4344,30.5834 C43.0314,31.3414 43.8634,31.7884 44.6704,31.7884 C45.6024,31.7884 46.1864,31.3414 46.1864,30.6204 C46.1864,30.1234 46.0124,29.8254 45.5904,29.5894 C45.3044,29.4284 45.1934,29.3904 44.4104,29.1414 C42.3104,28.4834 41.4654,27.6384 41.4654,26.2104 C41.4654,24.5694 42.8694,23.3524 44.7454,23.3524 C45.8884,23.3524 46.8944,23.7614 47.7144,24.5694 L46.5224,25.9494 Z" id="Fill-11"></path>
                    <path d="M53.9765,29.6144 L52.7465,25.3524 L51.5165,29.6144 L53.9765,29.6144 Z M54.5355,31.3534 L50.9565,31.3534 L50.3605,33.3294 L48.3475,33.3294 L51.5165,23.5514 L53.9765,23.5514 L57.1445,33.3294 L55.1315,33.3294 L54.5355,31.3534 Z" id="Fill-13"></path>
                    <polygon id="Fill-15" points="57.8876 33.3293 57.8876 23.5513 59.7506 23.5513 59.7506 31.5903 63.4786 31.5903 63.4786 33.3293"></polygon>
                    <polygon id="Fill-17" points="66.0858 25.2902 66.0858 27.3402 69.7378 27.3402 69.7378 29.0802 66.0858 29.0802 66.0858 31.5902 70.1978 31.5902 70.1978 33.3292 64.2218 33.3292 64.2218 23.5512 70.1978 23.5512 70.1978 25.2902"></polygon>
                    <polygon id="Fill-19" points="56.7226 17.3859 14.9096 17.3859 18.2396 20.7169"></polygon>
                    <path d="M16.3564,12.8058 C14.9124,12.8058 13.8544,11.3838 13.8544,9.5868 C13.8544,7.7918 14.9124,6.3688 16.3564,6.3688 C17.8024,6.3688 18.8214,7.7918 18.8214,9.5868 C18.8214,11.3838 17.8024,12.8058 16.3564,12.8058 L16.3564,12.8058 Z M18.7824,3.9138 L18.7824,4.4168 C18.0054,3.9228 17.3094,3.6348 16.3564,3.6348 C13.4264,3.6348 11.2014,6.3068 11.2014,9.5868 C11.2014,12.8678 13.4264,15.5378 16.3564,15.5378 C17.3094,15.5378 18.0054,15.2518 18.7824,14.7568 L18.7824,15.2598 L21.3574,15.2598 L21.3574,3.9138 L18.7824,3.9138 Z" id="Fill-21"></path>
                    <path d="M39.4101,3.9142 L39.4101,10.5792 C39.4101,11.8292 38.5511,12.8852 37.3001,12.8852 C36.0501,12.8852 35.1901,11.8292 35.1901,10.5792 L35.1901,3.9142 L32.6151,3.9142 L32.6151,10.5792 C32.6151,13.3132 34.4861,15.5382 37.2211,15.5382 C38.4871,15.5382 39.4101,14.8382 39.4101,14.8382 L39.4101,15.2602 L41.9851,15.2602 L41.9851,3.9142 L39.4101,3.9142 Z" id="Fill-23"></path>
                    <path d="M63.4032,15.2599 L63.4032,8.5949 C63.4032,7.3449 64.2622,6.2879 65.5132,6.2879 C66.7632,6.2879 67.6232,7.3449 67.6232,8.5949 L67.6232,15.2599 L70.1982,15.2599 L70.1982,8.5949 C70.1982,5.8599 68.3272,3.6349 65.5922,3.6349 C64.3262,3.6349 63.4032,4.3359 63.4032,4.3359 L63.4032,3.9139 L60.8292,3.9139 L60.8292,15.2599 L63.4032,15.2599 Z" id="Fill-25"></path>
                    <path d="M3.7802,3.7775 L5.5372,3.7775 C6.7472,3.7775 7.7352,4.7605 7.7352,5.9725 C7.7352,7.1875 6.7472,8.1715 5.5372,8.1715 L3.7802,8.1715 L3.7802,3.7775 Z M3.7802,15.2595 L3.7802,10.8645 L5.6842,10.8645 L8.9822,15.2595 L12.3532,15.2595 L8.3692,9.9565 C9.6102,9.0645 10.4262,7.6145 10.4262,5.9725 C10.4262,3.2765 8.2332,1.0865 5.5372,1.0865 L1.0872,1.0865 L1.0872,15.2595 L3.7802,15.2595 Z" id="Fill-27"></path>
                    <path d="M48.9247,12.5754 C48.6947,12.7314 48.4027,12.8544 48.0647,12.8544 C47.6437,12.8544 46.8507,12.5324 46.8507,11.4624 L46.8507,6.6064 L49.0527,6.6064 L49.0527,3.9144 L46.8507,3.9144 L46.8497,1.0864 L44.2757,1.0864 L44.2757,3.9144 L42.9127,3.9144 L42.9127,6.6064 L44.2757,6.6064 L44.2757,11.5014 C44.2747,14.0354 46.1837,15.5484 48.1037,15.5484 C48.8197,15.5484 49.8127,15.3134 50.6217,14.8344 L48.9247,12.5754 Z" id="Fill-29"></path>
                    <polygon id="Fill-31" points="27.7587 9.2326 32.1757 3.9146 28.5667 3.9146 25.4777 7.8666 25.4777 0.1496 22.8247 0.1496 22.8247 15.2596 25.4777 15.2596 25.4777 10.5986 29.2757 15.2596 32.8827 15.2596"></polygon>
                    <path d="M57.121,8.1223 L52.483,8.1223 C53.025,5.4653 56.619,5.3123 57.121,8.1223 M54.873,3.6263 C51.892,3.6263 49.755,6.2453 49.755,9.5873 C49.755,13.1013 52.438,15.5493 55.129,15.5493 C56.487,15.5493 58.227,15.0833 59.689,13.0093 L57.415,11.6953 C55.656,14.2883 52.725,12.9723 52.386,10.3793 L59.804,10.3813 C60.438,6.3063 57.803,3.6263 54.873,3.6263" id="Fill-33"></path>
                </g>
                <polygon id="Rectangle" fill="url(#linearGradient-4)" transform="translate(101.271224, 29.500000) scale(-1, -1) translate(-101.271224, -29.500000) " points="88.7712237 13 113.771224 13 113.771224 46 101.271224 46"></polygon>
            </g>
        </g>
    </g>
</svg>